<?xml version="1.0" encoding="UTF-8"?>
<svg id="Ebene_1" data-name="Ebene 1" xmlns="http://www.w3.org/2000/svg" width="30mm" height="128.5mm" viewBox="0 0 85.039 364.252">
  <defs>
    <style>
      .cls-1, .cls-2, .cls-3, .cls-4 {
        fill: none;
      }

      .cls-5 {
        fill: #1d1d1b;
      }

      .cls-2 {
        stroke: #fff;
      }

      .cls-2, .cls-3 {
        stroke-width: .25px;
      }

      .cls-3, .cls-4 {
        stroke: #1d1d1b;
      }

      .cls-4 {
        stroke-linejoin: round;
        stroke-width: .6px;
      }
    </style>
  </defs>
  <line class="cls-3" x1="2.835" y1="345.827" x2="82.205" y2="345.827"/>
  <line class="cls-3" x1="2.835" y1="275.97" x2="82.205" y2="275.97"/>
  <g>
    <path class="cls-1" d="m79.582,15.456c0-.105.013-.209.039-.3-.091.026-.195.039-.299.039-.247,0-.468-.076-.65-.219-.183.143-.404.219-.651.219-.104,0-.208-.013-.299-.039.026.091.039.195.039.3,0,.247-.077.468-.22.65.143.182.22.403.22.65s-.077.468-.22.651c.143.182.22.403.22.65,0,.104-.013.208-.039.299.091-.026.195-.039.299-.039.247,0,.468.078.651.221.182-.143.403-.221.65-.221.104,0,.208.013.299.039-.026-.091-.039-.195-.039-.299,0-.247.077-.468.22-.65-.143-.183-.22-.404-.22-.651s.077-.468.22-.65c-.143-.182-.22-.403-.22-.65Z"/>
    <path d="m74.836,14.156c0-.584-.455-1.039-1.04-1.039-.247,0-.468.076-.65.219-.182-.143-.402-.219-.649-.219-.585,0-1.039.455-1.039,1.039,0,.247.076.468.219.65-.143.182-.219.402-.219.65s.076.469.219.651c-.143.182-.219.402-.219.649s.076.468.219.65c-.143.182-.219.402-.219.649,0,.585.454,1.04,1.039,1.04s1.039-.455,1.039-1.04c0-.104-.013-.208-.039-.299.091.026.195.039.299.039.585,0,1.04-.454,1.04-1.039s-.455-1.039-1.04-1.039c-.104,0-.208.013-.299.039.026-.091.041-.195.041-.3,0-.104-.015-.208-.041-.3.091.026.195.039.299.039.585,0,1.04-.454,1.04-1.039Z"/>
    <path d="m69.571,18.317c-.247,0-.468.077-.65.219-.182-.142-.403-.219-.65-.219-.104,0-.208.013-.299.039.026-.091.039-.195.039-.299,0-.247-.076-.468-.219-.65.143-.182.219-.403.219-.65s-.076-.468-.219-.65c.143-.182.219-.403.219-.65s-.076-.468-.219-.65c.143-.182.219-.403.219-.65,0-.585-.455-1.04-1.039-1.04s-1.039.455-1.039,1.04c0,.247.076.468.219.65-.143.182-.219.403-.219.65s.076.468.219.65c-.143.182-.219.403-.219.65s.076.468.219.65c-.143.182-.219.403-.219.65s.076.468.219.65c-.143.182-.219.402-.219.649,0,.585.454,1.039,1.039,1.039.247,0,.467-.076.649-.219.182.143.403.219.65.219s.468-.076.65-.219c.182.143.403.219.65.219.585,0,1.04-.454,1.04-1.039s-.455-1.039-1.04-1.039Z"/>
    <path d="m81.44,16.106c.143-.182.221-.403.221-.65,0-.585-.455-1.039-1.039-1.039-.104,0-.208.013-.299.039.026-.092.039-.196.039-.3,0-.584-.455-1.039-1.04-1.039-.247,0-.468.076-.65.219-.183-.143-.404-.219-.651-.219-.585,0-1.04.455-1.04,1.039,0,.105.013.209.039.3-.091-.026-.195-.039-.298-.039-.585,0-1.04.454-1.04,1.039,0,.247.077.468.22.65-.143.182-.22.403-.22.65s.077.468.22.651c-.143.182-.22.403-.22.65,0,.585.455,1.039,1.04,1.039.103,0,.207-.013.298-.039-.026.091-.039.195-.039.299,0,.585.455,1.039,1.04,1.039.247,0,.468-.076.651-.219.182.143.403.219.65.219.585,0,1.04-.454,1.04-1.039,0-.104-.013-.208-.039-.299.091.026.195.039.299.039.584,0,1.039-.454,1.039-1.039,0-.247-.077-.468-.22-.65.143-.183.22-.404.22-.651s-.078-.468-.221-.65Zm-1.638,1.301c-.143.182-.22.403-.22.65,0,.104.013.208.039.299-.091-.026-.195-.039-.299-.039-.247,0-.468.078-.65.221-.183-.143-.404-.221-.651-.221-.104,0-.208.013-.299.039.026-.091.039-.195.039-.299,0-.247-.077-.468-.22-.65.143-.183.22-.404.22-.651s-.077-.468-.22-.65c.143-.182.22-.403.22-.65,0-.105-.013-.209-.039-.3.091.026.195.039.299.039.247,0,.468-.076.651-.219.182.143.403.219.65.219.104,0,.208-.013.299-.039-.026.091-.039.195-.039.3,0,.247.077.468.22.65-.143.182-.22.403-.22.65s.077.468.22.651Z"/>
  </g>
  <g>
    <path d="m80.621,9.017c-.247,0-.468.077-.65.219-.182-.142-.403-.219-.65-.219-.104,0-.208.013-.299.039.026-.091.039-.195.039-.299,0-.247-.077-.469-.22-.651.143-.182.22-.403.22-.65,0-.104-.013-.208-.039-.3.091.026.195.041.3.041.104,0,.208-.015.299-.041-.026.092-.039.196-.039.3,0,.585.455,1.039,1.04,1.039s1.039-.454,1.039-1.039-.455-1.039-1.039-1.039c-.105,0-.209.013-.3.039.026-.092.039-.196.039-.3,0-.584-.455-1.039-1.039-1.039s-1.041.455-1.041,1.039c0,.105.013.209.039.3-.091-.026-.195-.039-.298-.039-.585,0-1.04.454-1.04,1.039,0,.247.077.468.22.65-.143.182-.22.404-.22.651,0,.585.455,1.039,1.04,1.039.103,0,.207-.013.298-.039-.026.091-.039.195-.039.299,0,.585.455,1.039,1.04,1.039.247,0,.468-.076.65-.219.182.143.403.219.65.219.585,0,1.04-.454,1.04-1.039s-.455-1.039-1.04-1.039Z"/>
    <path d="m63.397,6.976c.181.143.402.219.649.219.585,0,1.04-.454,1.04-1.039s-.455-1.039-1.04-1.039c-.247,0-.468.077-.649.219-.182-.142-.403-.219-.65-.219-.585,0-1.039.455-1.039,1.039,0,.105.013.209.039.3-.091-.026-.195-.039-.299-.039-.585,0-1.04.455-1.04,1.04s.455,1.038,1.04,1.038c.104,0,.208-.013.299-.039-.026.092-.039.196-.039.3,0,.585.454,1.039,1.039,1.039.104,0,.208-.013.3-.039-.026.092-.041.196-.041.3,0,.105.015.209.041.3-.092-.026-.196-.039-.3-.039-.248,0-.469.077-.65.219-.182-.142-.402-.219-.649-.219-.585,0-1.04.455-1.04,1.039s.455,1.039,1.04,1.039c.247,0,.467-.076.649-.219.181.143.402.219.65.219.585,0,1.039-.454,1.039-1.039,0-.105-.013-.209-.039-.3.091.026.195.039.299.039.585,0,1.04-.454,1.04-1.038s-.455-1.041-1.04-1.041c-.104,0-.208.013-.299.039.026-.091.039-.195.039-.299,0-.584-.454-1.039-1.039-1.039-.104,0-.209.013-.3.039.026-.091.041-.195.041-.3,0-.104-.015-.208-.041-.3.091.026.196.039.3.039.247,0,.468-.076.65-.219Z"/>
    <path d="m75.097,6.417c-.104,0-.208.013-.299.039.026-.092.039-.196.039-.3,0-.584-.455-1.039-1.04-1.039-.248,0-.469.077-.651.219-.182-.142-.403-.219-.649-.219-.585,0-1.04.455-1.04,1.039,0,.247.077.468.22.65-.143.182-.22.402-.22.649s.077.468.22.65c-.143.182-.22.403-.22.65s.077.468.22.65c-.143.182-.22.403-.22.65,0,.585.455,1.04,1.04,1.04s1.039-.455,1.039-1.04c0-.247-.077-.468-.22-.65.143-.182.22-.403.22-.65s-.077-.468-.22-.65c.143-.182.22-.403.22-.65,0-.104-.013-.208-.039-.299.091.026.195.041.3.041.104,0,.208-.015.299-.041-.026.091-.039.195-.039.299,0,.247.077.468.22.65-.143.182-.22.403-.22.65s.077.468.22.65c-.143.182-.22.403-.22.65,0,.585.455,1.04,1.04,1.04s1.039-.455,1.039-1.04c0-.247-.077-.468-.22-.65.143-.182.22-.403.22-.65s-.078-.468-.221-.65c.143-.18.221-.401.221-.648,0-.585-.455-1.04-1.039-1.04Z"/>
    <path d="m69.572,6.417c-.585,0-1.039.455-1.039,1.04,0,.247.076.468.219.65-.143.182-.219.403-.219.65,0,.104.013.208.039.299-.092-.026-.196-.041-.3-.041-.105,0-.209.015-.3.041.026-.091.039-.195.039-.299,0-.247-.077-.468-.219-.65.142-.182.219-.403.219-.65,0-.585-.455-1.04-1.039-1.04s-1.039.455-1.039,1.04c0,.247.076.468.219.65-.143.182-.219.403-.219.65,0,.584.454,1.038,1.039,1.038.105,0,.209-.013.3-.039-.026.091-.039.195-.039.299,0,.247.076.468.219.65-.143.182-.219.403-.219.65,0,.585.454,1.04,1.039,1.04s1.039-.455,1.039-1.04c0-.247-.077-.468-.219-.65.142-.182.219-.403.219-.65,0-.104-.013-.208-.039-.299.092.026.196.039.3.039.584,0,1.039-.454,1.039-1.038,0-.247-.077-.468-.219-.65.142-.182.219-.403.219-.65,0-.585-.455-1.04-1.039-1.04Z"/>
  </g>
  <g>
    <path class="cls-5" d="m10.12,302.389c-.161.078-.302.19-.42.335-.12.146-.214.32-.284.525-.069.205-.104.435-.104.688s.035.482.104.688c.07.205.164.382.284.528.119.146.259.259.42.338.162.079.333.118.517.118.161,0,.303-.024.426-.074.123-.049.23-.114.322-.195.092-.08.167-.171.226-.272.059-.101.104-.202.137-.305.022-.073.061-.126.116-.157.055-.03.114-.046.176-.046.084,0,.163.027.237.082.073.055.11.132.11.231,0,.08-.033.194-.099.341s-.168.292-.308.437c-.139.146-.32.271-.542.377s-.489.16-.8.16c-.33,0-.619-.062-.866-.188-.248-.124-.453-.291-.616-.5s-.286-.448-.368-.718-.124-.551-.124-.845c0-.289.042-.57.124-.842.083-.271.205-.51.368-.718.163-.207.369-.373.616-.497.248-.125.536-.188.866-.188.253,0,.487.048.701.144.215.095.4.21.556.344s.277.275.363.426c.086.15.129.28.129.391,0,.099-.037.177-.11.233-.074.058-.152.086-.237.086-.062,0-.121-.016-.176-.047s-.094-.084-.116-.157c-.033-.103-.079-.203-.137-.302-.059-.1-.134-.189-.226-.27-.092-.081-.199-.146-.322-.195-.123-.05-.265-.074-.426-.074-.184,0-.355.039-.517.118Z"/>
    <path class="cls-5" d="m13.568,305.531h2.03c.081,0,.149.029.206.086s.085.125.085.206-.029.148-.085.203c-.057.056-.125.083-.206.083h-2.244c-.055,0-.108-.011-.16-.03-.051-.021-.097-.049-.137-.086-.041-.036-.074-.082-.099-.137-.026-.056-.039-.116-.039-.182v-3.581c0-.091.032-.168.096-.23.064-.062.14-.094.229-.094.091,0,.168.031.231.094.062.062.093.14.093.23v3.438Z"/>
    <path class="cls-5" d="m17.655,303.976l-.66.638v1.171c0,.089-.031.165-.093.229-.062.064-.14.097-.231.097-.088,0-.164-.032-.229-.097-.064-.063-.096-.14-.096-.229v-3.69c0-.091.032-.168.096-.23.064-.062.14-.094.229-.094.091,0,.168.031.231.094.062.062.093.14.093.23v1.717l2.035-1.964c.051-.052.117-.077.198-.077.099,0,.172.033.22.099.048.066.071.131.071.193,0,.08-.029.148-.088.203l-1.353,1.309,1.59,2.074c.037.048.055.106.055.176,0,.059-.01.106-.03.143-.02.037-.046.066-.077.088-.031.022-.063.037-.097.044-.033.008-.06.012-.082.012-.096,0-.173-.037-.231-.11l-1.551-2.023Z"/>
  </g>
  <line class="cls-2" x1="14.173" y1="318.343" x2="14.173" y2="324.012"/>
  <line class="cls-2" x1="11.339" y1="321.177" x2="17.008" y2="321.177"/>
  <line class="cls-2" x1="42.52" y1="51.732" x2="42.52" y2="61.937"/>
  <line class="cls-2" x1="37.417" y1="56.835" x2="47.622" y2="56.835"/>
  <g>
    <path class="cls-5" d="m38.385,28.689c.079.066.138.154.179.264l1.38,3.553c.019.048.028.093.028.138,0,.033-.005.069-.017.11s-.029.08-.055.118c-.025.039-.061.071-.107.096-.046.026-.102.039-.168.039-.077,0-.148-.024-.214-.071-.066-.048-.114-.11-.143-.187l-.363-1.045h-1.584l-.352,1.1c-.022.066-.062.117-.121.151s-.123.052-.192.052c-.099,0-.185-.033-.256-.099-.072-.066-.107-.146-.107-.242,0-.037.005-.072.017-.104l1.309-3.608c.04-.11.1-.198.179-.264.079-.066.177-.099.294-.099s.216.033.294.099Zm-.883,2.431h1.199l-.633-1.809-.566,1.809Z"/>
    <path class="cls-5" d="m43.841,28.796c.075-.086.177-.129.306-.129.113,0,.209.039.289.118.078.079.117.173.117.283v3.646c0,.081-.027.149-.084.206-.057.057-.127.085-.207.085s-.148-.028-.203-.085c-.055-.057-.083-.125-.083-.206v-2.821l-1.072,2.794c-.037.095-.089.172-.157.231s-.153.088-.256.088-.188-.029-.256-.088-.12-.136-.157-.231l-1.072-2.794v2.821c0,.081-.027.149-.083.206-.055.057-.123.085-.204.085s-.149-.028-.206-.085c-.057-.057-.085-.125-.085-.206v-3.646c0-.11.04-.205.118-.283.079-.079.175-.118.289-.118.128,0,.23.043.305.129.075.086.136.19.184.311l1.166,3.014,1.166-3.014c.048-.121.109-.225.184-.311Z"/>
    <path class="cls-5" d="m45.847,32.682c0,.088-.031.165-.094.229s-.14.096-.231.096c-.088,0-.164-.032-.228-.096-.064-.064-.097-.14-.097-.229v-3.586c0-.117.042-.218.127-.302.084-.084.187-.126.308-.126h1.578c.173,0,.334.032.484.096s.282.153.396.267c.113.114.202.246.267.396.063.15.096.312.096.484s-.032.334-.096.484c-.064.15-.153.282-.267.396-.114.113-.246.203-.396.267s-.312.096-.484.096h-1.363v1.529Zm0-3.438v1.331h1.292c.092,0,.178-.017.259-.052.08-.035.151-.083.212-.143.061-.06.107-.131.143-.211s.053-.167.053-.259c0-.091-.018-.178-.053-.258s-.082-.151-.143-.212-.132-.108-.212-.143c-.081-.035-.167-.052-.259-.052h-1.292Z"/>
  </g>
  <line class="cls-2" x1="42.52" y1="177.012" x2="42.52" y2="187.217"/>
  <line class="cls-2" x1="37.417" y1="182.114" x2="47.622" y2="182.114"/>
  <line class="cls-2" x1="42.52" y1="114.378" x2="42.52" y2="124.583"/>
  <line class="cls-2" x1="37.417" y1="119.48" x2="47.622" y2="119.48"/>
  <g>
    <path class="cls-5" d="m33.708,95.327c0,.088-.031.165-.093.229-.062.064-.14.096-.231.096-.088,0-.164-.032-.229-.096-.064-.064-.096-.14-.096-.229v-3.586c0-.117.042-.218.126-.302s.187-.126.308-.126h1.579c.172,0,.333.032.484.096s.282.153.396.267.203.246.267.396c.064.15.096.312.096.484s-.032.334-.096.484c-.064.15-.153.282-.267.396-.114.113-.246.203-.396.267s-.312.096-.484.096h-1.364v1.529Zm0-3.438v1.331h1.292c.092,0,.178-.017.259-.052.081-.035.151-.083.211-.143.061-.06.108-.131.143-.211.035-.081.052-.167.052-.259,0-.091-.017-.178-.052-.258-.035-.081-.083-.151-.143-.212-.06-.061-.131-.108-.211-.143-.081-.035-.167-.052-.259-.052h-1.292Z"/>
    <path class="cls-5" d="m37.464,93.683v1.645c0,.088-.031.165-.093.229-.062.064-.14.096-.231.096-.088,0-.164-.032-.229-.096-.064-.064-.096-.14-.096-.229v-3.69c0-.091.032-.168.096-.231.064-.062.14-.093.229-.093.091,0,.168.031.231.093.062.062.093.14.093.231v1.469h2.173v-1.469c0-.091.032-.168.096-.231.064-.062.14-.093.228-.093.092,0,.169.031.234.093.064.062.096.14.096.231v3.69c0,.088-.032.165-.096.229-.064.064-.142.096-.234.096-.088,0-.164-.032-.228-.096-.064-.064-.096-.14-.096-.229v-1.645h-2.173Z"/>
    <path class="cls-5" d="m42.835,91.334c.079.066.138.154.179.264l1.381,3.553c.018.048.027.093.027.138,0,.033-.006.069-.017.11s-.029.08-.056.118c-.025.039-.061.071-.106.096-.046.026-.103.039-.168.039-.077,0-.148-.024-.214-.071-.066-.048-.114-.11-.143-.187l-.363-1.045h-1.584l-.352,1.1c-.022.066-.062.117-.121.151s-.123.052-.192.052c-.099,0-.185-.033-.256-.099-.072-.066-.107-.146-.107-.242,0-.037.005-.072.017-.104l1.309-3.608c.04-.11.1-.198.179-.264.079-.066.177-.099.294-.099s.216.033.294.099Zm-.883,2.431h1.199l-.633-1.809-.566,1.809Z"/>
    <path class="cls-5" d="m47.95,94.981c-.087.165-.205.302-.355.413-.15.11-.326.192-.527.247-.202.055-.417.083-.644.083-.327,0-.604-.046-.834-.14-.229-.093-.415-.207-.558-.341-.144-.134-.248-.275-.313-.423-.066-.149-.1-.278-.1-.388,0-.132.034-.225.103-.28.067-.055.138-.083.211-.083.062,0,.119.019.171.058.051.039.082.1.094.185.021.139.07.262.146.368.075.106.168.195.277.267.11.071.233.125.369.162s.274.055.418.055c.113,0,.231-.014.354-.042s.234-.07.336-.126c.101-.057.183-.131.247-.223s.097-.202.097-.33c0-.139-.038-.255-.113-.347-.075-.091-.174-.168-.297-.231-.123-.062-.263-.114-.421-.157-.157-.042-.319-.085-.484-.129-.164-.044-.326-.094-.483-.151-.158-.057-.298-.13-.421-.22s-.222-.2-.297-.33c-.075-.13-.113-.292-.113-.487,0-.183.04-.346.119-.489.078-.143.188-.264.327-.363.139-.099.304-.174.495-.226.19-.051.399-.077.627-.077.22,0,.422.027.607.083.185.055.345.128.479.22.134.091.237.194.311.308.073.114.11.228.11.341,0,.095-.032.171-.097.228-.064.057-.135.085-.212.085-.055,0-.106-.016-.153-.047-.048-.031-.087-.082-.116-.151-.044-.11-.102-.199-.173-.267s-.15-.121-.236-.16-.177-.064-.272-.077c-.096-.013-.187-.02-.275-.02-.132,0-.254.014-.365.042-.112.027-.209.066-.292.115-.082.05-.146.11-.192.182-.046.071-.068.153-.068.245,0,.125.037.228.112.308s.176.148.3.204c.125.055.266.103.424.143.157.04.319.083.486.126s.329.096.487.157c.157.061.299.138.423.233.125.096.225.213.3.352.075.14.113.31.113.512,0,.224-.043.418-.129.583Z"/>
    <path class="cls-5" d="m49.047,95.652c-.055,0-.108-.01-.159-.03-.052-.02-.098-.048-.138-.085-.04-.037-.073-.083-.1-.137-.025-.055-.038-.116-.038-.182v-3.476c0-.117.042-.218.127-.302.084-.084.187-.126.308-.126h2.491c.081,0,.148.027.204.083.055.055.082.123.082.203,0,.081-.027.149-.082.207-.056.057-.123.085-.204.085h-2.276v1.194h2.139c.081,0,.149.028.204.085.055.057.082.126.082.207,0,.077-.027.144-.082.201s-.123.085-.204.085h-2.139v1.414h2.32c.077,0,.145.029.201.085s.085.125.085.206c0,.081-.028.148-.085.204s-.124.083-.201.083h-2.535Z"/>
  </g>
  <g>
    <path class="cls-5" d="m39.408,216.733c.075-.086.177-.129.306-.129.113,0,.209.039.289.118.079.078.118.173.118.283v3.646c0,.08-.028.149-.085.206-.057.057-.126.085-.207.085s-.148-.028-.204-.085c-.055-.057-.083-.126-.083-.206v-2.821l-1.072,2.794c-.037.095-.089.172-.157.23s-.153.088-.256.088-.188-.029-.256-.088-.12-.136-.157-.23l-1.072-2.794v2.821c0,.08-.027.149-.083.206s-.123.085-.204.085-.149-.028-.206-.085c-.057-.057-.085-.126-.085-.206v-3.646c0-.11.04-.205.118-.283.079-.079.175-.118.289-.118.128,0,.23.043.305.129s.136.189.184.311l1.166,3.014,1.166-3.014c.048-.121.109-.225.184-.311Z"/>
    <path class="cls-5" d="m41.873,220.839c-.262-.121-.486-.284-.671-.489-.186-.205-.329-.443-.429-.715-.101-.271-.151-.56-.151-.863,0-.301.05-.587.151-.858.101-.271.244-.51.429-.715.185-.205.409-.368.671-.489s.556-.182.883-.182.621.061.883.182c.262.121.486.284.67.489.186.205.328.443.43.715.1.271.15.558.15.858,0,.304-.051.592-.15.863-.102.271-.244.51-.43.715-.185.205-.409.368-.67.489-.262.121-.557.182-.883.182s-.621-.061-.883-.182Zm2.252-2.755c-.077-.206-.183-.38-.316-.522-.134-.144-.291-.254-.47-.333s-.374-.118-.583-.118-.403.039-.583.118-.336.189-.47.333c-.134.143-.239.316-.316.522-.077.205-.116.435-.116.688s.039.481.116.688c.077.205.182.38.316.524.134.146.291.257.47.336s.374.118.583.118.403-.039.583-.118.336-.19.47-.336c.134-.145.239-.319.316-.524.076-.206.115-.435.115-.688s-.039-.482-.115-.688Z"/>
    <path class="cls-5" d="m45.824,220.943c-.055,0-.108-.01-.159-.03-.052-.02-.098-.048-.138-.085s-.073-.083-.1-.138c-.025-.055-.038-.115-.038-.182v-3.476c0-.117.042-.218.127-.303.084-.084.187-.126.308-.126h1.304c.216,0,.433.036.648.109.217.073.411.195.583.366.173.17.312.394.418.671.106.276.16.617.16,1.021,0,.406-.054.749-.16,1.025-.106.277-.245.5-.418.671-.172.171-.366.293-.583.366-.216.073-.433.109-.648.109h-1.304Zm.215-3.762v3.185h.962c.217,0,.405-.038.566-.113.162-.074.296-.181.401-.318.106-.138.186-.305.237-.501.051-.196.077-.417.077-.662,0-.242-.026-.462-.077-.657-.052-.196-.131-.363-.237-.501-.105-.138-.239-.244-.401-.319-.161-.074-.35-.112-.566-.112h-.962Z"/>
  </g>
  <line class="cls-2" x1="42.52" y1="239.669" x2="42.52" y2="249.874"/>
  <line class="cls-2" x1="37.417" y1="244.772" x2="47.622" y2="244.772"/>
  <polygon class="cls-5" points="22.722 160.9 22.722 160.9 22.722 165.969 27.791 165.969 22.722 160.9"/>
  <polygon class="cls-4" points="22.722 160.9 22.722 160.9 22.722 165.969 27.791 165.969 22.722 160.9"/>
  <polygon class="cls-5" points="60.661 161.948 60.661 161.948 58.126 165.6 63.196 165.6 60.661 161.948"/>
  <polygon class="cls-4" points="60.661 161.948 60.661 161.948 58.126 165.6 63.196 165.6 60.661 161.948"/>
  <polygon class="cls-5" points="19.542 179.58 19.542 179.58 19.542 184.649 14.473 184.649 19.542 179.58"/>
  <polygon class="cls-4" points="19.542 179.58 19.542 179.58 19.542 184.649 14.473 184.649 19.542 179.58"/>
  <path class="cls-5" d="m42.52,159.312c1.497,0,2.71-1.213,2.71-2.71s-1.213-2.709-2.71-2.709-2.71,1.213-2.71,2.709,1.214,2.71,2.71,2.71"/>
  <path class="cls-5" d="m26.929,199.632h-5.669c-.166,0-.3-.134-.3-.3s.134-.3.3-.3h5.669c.166,0,.3.134.3.3s-.134.3-.3.3Z"/>
  <path class="cls-5" d="m57.611,200.765c-.166,0-.3-.134-.3-.3,0-1.179.494-2.368,1.6-2.368.739,0,1.204.328,1.486.658l.603-.855h1.95l.003,1.332h1.082c.166,0,.3.134.3.3s-.134.3-.3.3h-1.681l-.002-1.332h-1.042l-.956,1.358-.228-.437c-.173-.33-.523-.725-1.216-.725-.791,0-1,1.157-1,1.769,0,.166-.134.3-.3.3Z"/>
  <rect class="cls-5" x="65.78" y="179.864" width="4.502" height="4.502"/>
  <rect class="cls-4" x="65.78" y="179.864" width="4.502" height="4.502"/>
  <g>
    <path class="cls-5" d="m67.626,305.762c0,.088-.031.164-.094.229-.062.063-.14.096-.231.096-.088,0-.164-.032-.228-.096-.064-.064-.097-.141-.097-.229v-3.69c0-.092.032-.169.097-.231.063-.062.14-.093.228-.093.092,0,.169.031.231.093.062.062.094.14.094.231v3.69Z"/>
    <path class="cls-5" d="m71.079,306.018c-.069-.046-.132-.111-.187-.195l-1.975-2.932v2.871c0,.088-.031.164-.094.229-.062.063-.14.096-.231.096-.088,0-.164-.032-.228-.096-.064-.064-.097-.141-.097-.229v-3.69c0-.092.032-.169.097-.231.063-.062.14-.093.228-.093.103,0,.189.022.259.068s.134.111.192.195l1.969,2.953v-2.893c0-.092.031-.169.094-.231.062-.062.14-.093.231-.093s.168.031.23.093c.062.062.094.14.094.231v3.69c0,.088-.031.164-.094.229-.062.063-.139.096-.23.096-.103,0-.189-.022-.259-.068Z"/>
    <path class="cls-5" d="m72.135,302.182c-.011-.037-.016-.074-.016-.11,0-.022.002-.052.008-.088.006-.037.02-.072.041-.107.022-.035.055-.065.097-.091s.1-.038.173-.038c.07,0,.133.018.19.055.057.036.096.088.118.154l1.105,3.261,1.105-3.261c.021-.066.062-.118.118-.154.057-.037.12-.055.189-.055.033,0,.068.005.104.016.037.012.071.029.104.053s.06.057.08.099c.02.043.03.095.03.157,0,.036-.006.073-.017.11l-1.298,3.597c-.033.096-.086.17-.157.226-.071.055-.158.082-.261.082s-.19-.027-.262-.082c-.071-.056-.124-.13-.156-.226l-1.299-3.597Z"/>
  </g>
  <path class="cls-3" d="m64.897,300.42h13.639c1.565,0,2.835,1.27,2.835,2.835v1.168c0,1.564-1.27,2.834-2.834,2.834h-13.64c-1.565,0-2.835-1.27-2.835-2.835v-1.167c0-1.565,1.27-2.835,2.835-2.835Z"/>
  <line class="cls-2" x1="71.716" y1="318.343" x2="71.716" y2="324.012"/>
  <line class="cls-2" x1="68.882" y1="321.177" x2="74.551" y2="321.177"/>
  <g>
    <path class="cls-5" d="m37.263,305.981c-.262-.121-.486-.284-.671-.489-.186-.205-.329-.443-.429-.715-.101-.271-.151-.56-.151-.863,0-.301.05-.587.151-.858.101-.271.244-.51.429-.715.185-.205.409-.368.671-.489s.556-.182.883-.182.621.061.883.182c.262.121.486.284.671.489s.328.443.429.715c.101.271.151.558.151.858,0,.304-.05.592-.151.863-.101.271-.244.51-.429.715s-.409.368-.671.489c-.262.121-.557.182-.883.182s-.621-.061-.883-.182Zm2.252-2.755c-.077-.206-.182-.38-.316-.522-.134-.144-.291-.254-.47-.333s-.374-.118-.583-.118-.403.039-.583.118-.336.189-.47.333c-.134.143-.239.316-.316.522-.077.205-.116.435-.116.688s.039.481.116.688c.077.205.182.38.316.524.134.146.291.257.47.336s.374.118.583.118.403-.039.583-.118.336-.19.47-.336c.134-.145.239-.319.316-.524.077-.206.116-.435.116-.688s-.039-.482-.116-.688Z"/>
    <path class="cls-5" d="m43.602,302.071c0-.092.032-.169.096-.231.064-.062.14-.093.228-.093.091,0,.169.031.234.093.064.062.096.14.096.231v2.568c0,.282-.049.521-.146.715s-.225.352-.385.471-.345.204-.556.256c-.211.051-.428.076-.651.076-.228,0-.446-.025-.655-.076-.209-.052-.393-.137-.553-.256s-.288-.276-.385-.471-.146-.433-.146-.715v-2.568c0-.092.032-.169.096-.231.064-.062.14-.093.229-.093.091,0,.168.031.231.093.062.062.093.14.093.231v2.568c0,.173.03.319.091.44.061.12.141.218.242.291.101.073.217.127.349.159.132.033.268.05.407.05s.274-.017.404-.05c.13-.032.246-.086.347-.159s.182-.171.242-.291c.061-.121.091-.268.091-.44v-2.568Z"/>
    <path class="cls-5" d="m45.005,302.324c-.081,0-.149-.028-.206-.085-.058-.058-.086-.126-.086-.207,0-.08.028-.148.086-.203.057-.055.125-.082.206-.082h2.706c.08,0,.149.027.206.082s.085.123.085.203c0,.081-.028.149-.085.207-.057.057-.126.085-.206.085h-1.029v3.438c0,.088-.031.164-.096.229-.064.063-.141.096-.229.096-.092,0-.169-.032-.23-.096-.062-.064-.094-.141-.094-.229v-3.438h-1.028Z"/>
  </g>
  <path class="cls-3" d="m35.7,300.42h13.639c1.565,0,2.835,1.27,2.835,2.835v1.168c0,1.564-1.27,2.834-2.834,2.834h-13.64c-1.565,0-2.835-1.27-2.835-2.835v-1.167c0-1.565,1.27-2.835,2.835-2.835Z"/>
  <line class="cls-2" x1="42.52" y1="318.343" x2="42.52" y2="324.012"/>
  <line class="cls-2" x1="39.685" y1="321.177" x2="45.354" y2="321.177"/>
  <line class="cls-3" x1="28.347" y1="278.929" x2="28.347" y2="342.867"/>
  <line class="cls-3" x1="56.693" y1="278.929" x2="56.693" y2="342.867"/>
  <line class="cls-2" x1="42.52" y1="284.41" x2="42.52" y2="288.662"/>
  <line class="cls-2" x1="40.394" y1="286.535" x2="44.646" y2="286.535"/>
  <line class="cls-2" x1="70.866" y1="284.41" x2="70.866" y2="288.662"/>
  <line class="cls-2" x1="68.74" y1="286.535" x2="72.992" y2="286.535"/>
  <line class="cls-2" x1="10.63" y1="6.378" x2="10.63" y2="10.63"/>
  <line class="cls-2" x1="8.504" y1="8.504" x2="12.756" y2="8.504"/>
  <line class="cls-2" x1="74.41" y1="353.622" x2="74.41" y2="357.874"/>
  <line class="cls-2" x1="72.283" y1="355.748" x2="76.535" y2="355.748"/>
  <rect class="cls-1" width="85.039" height="364.252"/>
</svg>