<?xml version="1.0" encoding="UTF-8"?>
<svg id="Ebene_1" data-name="Ebene 1" xmlns="http://www.w3.org/2000/svg" width="36mm" height="128.5mm" xmlns:xlink="http://www.w3.org/1999/xlink" viewBox="0 0 102.047 364.252">
  <defs>
    <style>
      .cls-1, .cls-2, .cls-3, .cls-4, .cls-5, .cls-6 {
        fill: none;
      }

      .cls-7 {
        clip-path: url(#clippath);
      }

      .cls-8 {
        fill: #1d1d1b;
      }

      .cls-2, .cls-3 {
        stroke-width: .25px;
      }

      .cls-2, .cls-6 {
        stroke: #fff;
      }

      .cls-3, .cls-4, .cls-5 {
        stroke: #1d1d1b;
      }

      .cls-4 {
        stroke-linecap: round;
      }

      .cls-4, .cls-5 {
        stroke-width: .6px;
      }

      .cls-9 {
        clip-path: url(#clippath-1);
      }

      .cls-10 {
        clip-path: url(#clippath-4);
      }

      .cls-11 {
        clip-path: url(#clippath-3);
      }

      .cls-12 {
        clip-path: url(#clippath-2);
      }

      .cls-13 {
        clip-path: url(#clippath-7);
      }

      .cls-14 {
        clip-path: url(#clippath-8);
      }

      .cls-15 {
        clip-path: url(#clippath-6);
      }

      .cls-16 {
        clip-path: url(#clippath-5);
      }

      .cls-17 {
        clip-path: url(#clippath-9);
      }

      .cls-18 {
        clip-path: url(#clippath-13);
      }

      .cls-19 {
        clip-path: url(#clippath-12);
      }

      .cls-20 {
        clip-path: url(#clippath-10);
      }

      .cls-21 {
        clip-path: url(#clippath-11);
      }

      .cls-5 {
        stroke-linejoin: round;
      }

      .cls-6 {
        stroke-width: .01px;
      }
    </style>
    <clipPath id="clippath">
      <rect class="cls-1" x="8.504" width="85.039" height="364.252"/>
    </clipPath>
    <clipPath id="clippath-1">
      <rect class="cls-1" x="8.504" width="85.039" height="364.252"/>
    </clipPath>
    <clipPath id="clippath-2">
      <rect class="cls-1" x="8.504" width="85.039" height="364.252"/>
    </clipPath>
    <clipPath id="clippath-3">
      <rect class="cls-1" x="8.504" width="85.039" height="364.252"/>
    </clipPath>
    <clipPath id="clippath-4">
      <rect class="cls-1" x="8.504" width="85.039" height="364.252"/>
    </clipPath>
    <clipPath id="clippath-5">
      <rect class="cls-1" x="8.504" width="85.039" height="364.252"/>
    </clipPath>
    <clipPath id="clippath-6">
      <rect class="cls-1" x="8.504" width="85.039" height="364.252"/>
    </clipPath>
    <clipPath id="clippath-7">
      <rect class="cls-1" x="8.504" width="85.039" height="364.252"/>
    </clipPath>
    <clipPath id="clippath-8">
      <rect class="cls-1" x="8.504" width="85.039" height="364.252"/>
    </clipPath>
    <clipPath id="clippath-9">
      <rect class="cls-1" x="8.504" width="85.039" height="364.252"/>
    </clipPath>
    <clipPath id="clippath-10">
      <rect class="cls-1" x="8.504" width="85.039" height="364.252"/>
    </clipPath>
    <clipPath id="clippath-11">
      <rect class="cls-1" x="8.504" width="85.039" height="364.252"/>
    </clipPath>
    <clipPath id="clippath-12">
      <rect class="cls-1" x="8.504" width="85.039" height="364.252"/>
    </clipPath>
    <clipPath id="clippath-13">
      <rect class="cls-1" x="8.504" width="85.039" height="364.252"/>
    </clipPath>
  </defs>
  <g class="cls-7">
    <line class="cls-3" y1="346.424" x2="102.047" y2="346.424"/>
    <line class="cls-3" y1="276.095" x2="102.047" y2="276.095"/>
  </g>
  <line class="cls-3" x1="51.024" y1="276.095" x2="51.024" y2="346.3"/>
  <g class="cls-9">
    <path class="cls-8" d="m72.283,326.393c4.697,0,8.504-3.807,8.504-8.504s-3.807-8.504-8.504-8.504-8.504,3.807-8.504,8.504,3.807,8.504,8.504,8.504"/>
  </g>
  <g>
    <path class="cls-8" d="m67.275,301.993c-.248-.114-.46-.269-.635-.463s-.31-.419-.405-.676-.144-.528-.144-.816c0-.284.048-.555.144-.812.096-.256.23-.481.405-.676s.387-.349.635-.463.526-.172.835-.172.586.058.834.172.459.269.635.463c.175.194.31.42.405.676.096.257.144.527.144.812,0,.288-.048.56-.144.816s-.23.481-.405.676c-.176.194-.387.349-.635.463s-.526.172-.834.172-.587-.058-.835-.172Zm2.129-2.605c-.072-.193-.172-.358-.299-.494-.126-.135-.274-.239-.444-.314-.17-.074-.354-.111-.551-.111s-.382.037-.552.111c-.17.075-.318.18-.444.314-.127.136-.227.301-.299.494-.073.194-.109.411-.109.65s.036.456.109.65c.072.193.172.359.299.496.126.137.274.243.444.317s.354.111.552.111.381-.037.551-.111.318-.181.444-.317c.127-.137.227-.303.299-.496.073-.194.109-.411.109-.65s-.036-.456-.109-.65Z"/>
    <path class="cls-8" d="m73.342,298.296c0-.087.03-.159.091-.218.061-.06.133-.089.216-.089.086,0,.16.029.221.089.061.059.091.131.091.218v2.429c0,.267-.046.492-.138.676s-.213.332-.364.444c-.15.113-.325.193-.524.242-.2.049-.405.072-.616.072-.216,0-.422-.023-.619-.072s-.372-.129-.522-.242c-.151-.112-.272-.261-.364-.444s-.138-.409-.138-.676v-2.429c0-.087.03-.159.091-.218.061-.06.133-.089.216-.089.087,0,.159.029.219.089.059.059.088.131.088.218v2.429c0,.163.029.302.086.416.058.114.134.206.229.275.096.069.206.119.331.15.124.031.253.047.385.047.131,0,.259-.016.382-.047s.232-.081.327-.15c.096-.069.172-.161.229-.275.057-.114.086-.253.086-.416v-2.429Z"/>
    <path class="cls-8" d="m74.744,298.535c-.076,0-.141-.026-.194-.08s-.081-.119-.081-.195.027-.141.081-.192.118-.078.194-.078h2.559c.076,0,.142.026.195.078s.08.116.08.192-.026.142-.08.195-.119.08-.195.08h-.972v3.25c0,.083-.031.155-.092.216s-.132.091-.216.091c-.086,0-.159-.03-.218-.091-.06-.061-.089-.133-.089-.216v-3.25h-.973Z"/>
  </g>
  <g class="cls-12">
    <path class="cls-3" d="m65.191,297.101c-1.653,0-2.993,1.34-2.993,2.993s1.34,2.993,2.993,2.993h14.185c1.653,0,2.993-1.34,2.993-2.993s-1.34-2.993-2.993-2.993h-14.185Z"/>
  </g>
  <line class="cls-2" x1="72.283" y1="315.054" x2="72.283" y2="320.723"/>
  <line class="cls-2" x1="69.449" y1="317.889" x2="75.118" y2="317.889"/>
  <g class="cls-11">
    <path class="cls-8" d="m29.764,326.33c4.697,0,8.504-3.807,8.504-8.504s-3.807-8.504-8.504-8.504-8.504,3.807-8.504,8.504,3.807,8.504,8.504,8.504"/>
  </g>
  <g>
    <path class="cls-8" d="m25.854,298.616c-.152.074-.285.181-.398.317-.112.137-.202.303-.268.496-.066.194-.099.411-.099.65s.033.456.099.65c.066.193.155.36.268.499.113.139.246.245.398.319.152.075.315.112.489.112.153,0,.287-.023.403-.07.116-.047.217-.108.304-.185.086-.076.158-.162.213-.258.056-.095.099-.191.13-.288.021-.069.058-.119.109-.148.052-.029.107-.044.167-.044.08,0,.154.025.224.078.069.052.104.124.104.218,0,.076-.031.184-.094.322s-.16.276-.291.414c-.132.137-.303.255-.512.355-.21.101-.462.151-.757.151-.312,0-.585-.06-.819-.177-.234-.118-.428-.275-.583-.474-.154-.197-.271-.424-.348-.679-.078-.255-.117-.521-.117-.798,0-.273.039-.539.117-.796.078-.256.194-.482.348-.679.154-.195.349-.353.583-.471.234-.117.507-.177.819-.177.239,0,.46.046.663.136s.378.198.525.325c.147.126.262.261.343.402.081.143.122.266.122.369,0,.094-.035.168-.104.222s-.144.08-.224.08c-.059,0-.114-.015-.167-.044-.052-.029-.088-.079-.109-.148-.031-.097-.074-.192-.13-.286-.055-.093-.126-.178-.213-.255-.087-.076-.188-.138-.304-.185-.116-.046-.25-.069-.403-.069-.173,0-.336.037-.489.111Z"/>
    <path class="cls-8" d="m29.197,301.588h1.918c.076,0,.141.027.195.081.054.054.081.118.081.194s-.027.141-.081.192c-.054.053-.119.078-.195.078h-2.122c-.052,0-.102-.009-.151-.028-.048-.02-.092-.046-.13-.081-.038-.034-.069-.077-.094-.13-.024-.052-.036-.109-.036-.171v-3.386c0-.087.03-.159.091-.218.061-.06.133-.089.216-.089.087,0,.16.029.218.089.059.059.089.131.089.218v3.25Z"/>
    <path class="cls-8" d="m33.139,300.116l-.624.604v1.107c0,.083-.03.155-.089.216-.059.061-.131.091-.218.091-.083,0-.155-.03-.216-.091s-.091-.133-.091-.216v-3.489c0-.087.03-.159.091-.218.061-.06.133-.089.216-.089.087,0,.16.029.218.089.059.059.089.131.089.218v1.622l1.924-1.855c.048-.049.111-.073.187-.073.094,0,.163.031.208.094s.068.123.068.182c0,.076-.028.141-.083.192l-1.279,1.238,1.502,1.96c.035.045.052.101.052.166,0,.056-.01.101-.029.136-.019.034-.043.062-.073.083s-.06.035-.091.042-.057.01-.078.01c-.09,0-.163-.034-.218-.104l-1.467-1.914Z"/>
  </g>
  <line class="cls-2" x1="29.764" y1="314.992" x2="29.764" y2="320.661"/>
  <line class="cls-2" x1="26.929" y1="317.826" x2="32.598" y2="317.826"/>
  <g class="cls-10">
    <path class="cls-8" d="m51.024,65.072c4.628,0,8.379-3.751,8.379-8.379s-3.751-8.379-8.379-8.379-8.379,3.751-8.379,8.379,3.751,8.379,8.379,8.379"/>
    <circle class="cls-2" cx="51.024" cy="56.693" r="8.379"/>
    <path class="cls-8" d="m51.024,70.741c7.759,0,14.048-6.29,14.048-14.048s-6.289-14.048-14.048-14.048-14.048,6.289-14.048,14.048,6.289,14.048,14.048,14.048"/>
    <circle class="cls-2" cx="51.024" cy="56.693" r="14.048"/>
  </g>
  <g>
    <path class="cls-8" d="m47.03,28.625c.075.062.131.146.169.25l1.305,3.359c.018.045.026.088.026.13,0,.031-.005.066-.016.104-.01.038-.027.076-.052.112-.024.037-.058.067-.102.091-.043.024-.096.037-.159.037-.073,0-.14-.022-.203-.067-.062-.045-.107-.104-.135-.177l-.343-.988h-1.498l-.333,1.04c-.021.062-.059.11-.115.143-.055.033-.116.049-.182.049-.094,0-.174-.031-.242-.094-.067-.062-.101-.139-.101-.229,0-.035.005-.068.016-.099l1.237-3.411c.038-.104.095-.187.169-.25.075-.062.167-.094.278-.094s.204.031.278.094Zm-.834,2.298h1.133l-.598-1.711-.536,1.711Z"/>
    <path class="cls-8" d="m52.266,28.726c.071-.082.167-.123.289-.123.107,0,.198.038.273.112.074.075.111.164.111.268v3.448c0,.076-.027.141-.08.195-.055.054-.119.081-.195.081s-.141-.027-.192-.081c-.052-.054-.078-.119-.078-.195v-2.668l-1.014,2.642c-.035.09-.084.163-.148.219-.064.055-.145.083-.242.083-.097,0-.177-.028-.242-.083-.064-.056-.113-.128-.148-.219l-1.014-2.642v2.668c0,.076-.026.141-.078.195-.052.054-.116.081-.192.081s-.141-.027-.195-.081-.081-.119-.081-.195v-3.448c0-.104.037-.193.112-.268.074-.074.166-.112.273-.112.121,0,.217.041.289.123.071.082.129.179.174.293l1.102,2.85,1.103-2.85c.045-.114.103-.212.174-.293Z"/>
    <path class="cls-8" d="m54.239,32.4c0,.083-.029.155-.088.216-.06.061-.132.091-.219.091-.083,0-.155-.03-.216-.091-.061-.061-.091-.133-.091-.216v-3.391c0-.111.04-.206.119-.286.08-.08.177-.12.292-.12h1.492c.163,0,.315.031.457.091.143.061.268.145.375.252s.191.232.252.375.091.295.091.458-.03.315-.091.458c-.061.143-.145.267-.252.375s-.232.192-.375.252c-.142.061-.294.091-.457.091h-1.29v1.446Zm0-3.25v1.258h1.223c.086,0,.168-.017.244-.049.076-.033.143-.078.2-.135.057-.057.103-.124.135-.2.033-.076.05-.158.05-.245,0-.086-.017-.168-.05-.244-.032-.076-.078-.143-.135-.2-.058-.057-.124-.103-.2-.135-.076-.033-.158-.049-.244-.049h-1.223Z"/>
  </g>
  <line class="cls-2" x1="51.024" y1="51.591" x2="51.024" y2="61.796"/>
  <line class="cls-2" x1="45.921" y1="56.693" x2="56.126" y2="56.693"/>
  <g class="cls-16">
    <path class="cls-8" d="m51.024,190.477c4.628,0,8.379-3.751,8.379-8.379s-3.751-8.379-8.379-8.379-8.379,3.751-8.379,8.379,3.751,8.379,8.379,8.379"/>
    <circle class="cls-2" cx="51.024" cy="182.098" r="8.379"/>
    <path class="cls-8" d="m51.024,196.146c7.759,0,14.048-6.29,14.048-14.048s-6.289-14.048-14.048-14.048-14.048,6.289-14.048,14.048,6.289,14.048,14.048,14.048"/>
    <circle class="cls-2" cx="51.024" cy="182.098" r="14.048"/>
  </g>
  <line class="cls-2" x1="45.921" y1="182.098" x2="56.126" y2="182.098"/>
  <line class="cls-2" x1="51.024" y1="176.995" x2="51.024" y2="187.2"/>
  <g class="cls-15">
    <path class="cls-8" d="m51.024,127.718c4.628,0,8.379-3.751,8.379-8.379s-3.751-8.379-8.379-8.379-8.379,3.751-8.379,8.379,3.751,8.379,8.379,8.379"/>
    <circle class="cls-2" cx="51.024" cy="119.339" r="8.379"/>
    <path class="cls-8" d="m51.024,133.387c7.759,0,14.048-6.29,14.048-14.048s-6.289-14.048-14.048-14.048-14.048,6.289-14.048,14.048,6.289,14.048,14.048,14.048"/>
    <circle class="cls-2" cx="51.024" cy="119.339" r="14.048"/>
  </g>
  <line class="cls-2" x1="51.024" y1="114.236" x2="51.024" y2="124.441"/>
  <line class="cls-2" x1="45.921" y1="119.339" x2="56.126" y2="119.339"/>
  <g>
    <path class="cls-8" d="m42.529,95.045c0,.083-.03.155-.089.216-.059.061-.131.091-.218.091-.083,0-.155-.03-.216-.091-.061-.061-.091-.133-.091-.216v-3.391c0-.111.04-.206.12-.286.08-.08.177-.12.291-.12h1.493c.163,0,.315.031.458.091s.267.145.375.252c.107.107.191.232.252.375s.091.295.091.458-.03.315-.091.458c-.061.143-.145.267-.252.375-.108.107-.232.192-.375.252s-.295.091-.458.091h-1.29v1.446Zm0-3.25v1.258h1.222c.087,0,.168-.017.245-.049.076-.033.143-.078.2-.135s.102-.124.135-.2c.033-.076.049-.158.049-.245,0-.086-.017-.168-.049-.244-.033-.076-.078-.143-.135-.2s-.124-.103-.2-.135c-.077-.033-.158-.049-.245-.049h-1.222Z"/>
    <path class="cls-8" d="m46.159,93.49v1.555c0,.083-.03.155-.089.216-.059.061-.131.091-.218.091-.083,0-.155-.03-.216-.091-.061-.061-.091-.133-.091-.216v-3.489c0-.087.03-.16.091-.218.061-.059.133-.089.216-.089.087,0,.16.03.218.089.059.059.089.131.089.218v1.388h2.054v-1.388c0-.087.03-.16.091-.218.061-.059.133-.089.216-.089.087,0,.161.03.221.089.061.059.091.131.091.218v3.489c0,.083-.03.155-.091.216-.061.061-.134.091-.221.091-.083,0-.155-.03-.216-.091-.061-.061-.091-.133-.091-.216v-1.555h-2.054Z"/>
    <path class="cls-8" d="m51.32,91.27c.075.062.131.146.169.25l1.305,3.359c.018.045.026.088.026.13,0,.031-.006.066-.016.104-.011.038-.027.076-.053.112-.023.037-.058.067-.102.091-.043.024-.096.037-.158.037-.073,0-.14-.022-.203-.067-.062-.045-.107-.104-.135-.177l-.343-.988h-1.498l-.333,1.04c-.021.062-.059.11-.115.143-.055.033-.116.049-.182.049-.094,0-.174-.031-.242-.094-.067-.062-.101-.139-.101-.229,0-.035.005-.068.016-.099l1.237-3.411c.038-.104.095-.187.169-.25.075-.062.167-.094.278-.094s.204.031.278.094Zm-.834,2.298h1.133l-.598-1.711-.536,1.711Z"/>
    <path class="cls-8" d="m56.224,94.718c-.082.156-.193.286-.336.39-.142.104-.309.182-.499.234-.19.052-.394.078-.608.078-.309,0-.571-.044-.788-.132s-.393-.196-.527-.322c-.136-.126-.234-.26-.297-.4-.062-.141-.094-.263-.094-.367,0-.125.032-.213.097-.265.064-.052.131-.078.2-.078.059,0,.112.018.161.055.049.036.078.094.089.174.021.132.066.248.138.349.07.101.158.185.263.252.104.067.22.119.348.153.129.035.261.052.396.052.107,0,.219-.013.335-.039.116-.026.223-.065.317-.12.096-.054.174-.124.234-.21.061-.086.091-.19.091-.312,0-.132-.035-.241-.106-.328-.071-.086-.165-.159-.281-.218s-.248-.108-.397-.148c-.149-.04-.302-.081-.458-.122-.155-.042-.309-.089-.457-.143-.149-.054-.282-.123-.398-.208-.115-.085-.209-.189-.28-.312s-.106-.276-.106-.46c0-.173.037-.328.111-.463.075-.135.178-.25.31-.343s.288-.165.468-.213c.181-.048.378-.073.593-.073.208,0,.399.026.575.078.175.052.325.122.452.208.127.087.225.184.294.291.069.108.104.215.104.323,0,.09-.03.162-.091.216s-.127.081-.2.081c-.052,0-.101-.015-.146-.044-.045-.029-.081-.077-.109-.143-.041-.104-.096-.188-.163-.252-.068-.064-.143-.114-.224-.151-.082-.036-.168-.061-.258-.073s-.177-.018-.26-.018c-.125,0-.24.013-.346.039-.106.026-.198.062-.276.109-.077.047-.139.104-.182.172-.043.067-.065.145-.065.231,0,.118.036.215.107.291.07.076.165.14.283.192.117.052.251.097.4.135.148.038.303.078.46.12.158.042.312.091.46.148.149.057.283.131.4.221.118.09.213.201.284.333.07.132.106.293.106.484,0,.211-.041.395-.122.551Z"/>
    <path class="cls-8" d="m57.339,95.352c-.053,0-.103-.009-.151-.029-.049-.019-.092-.046-.13-.081s-.069-.078-.094-.13c-.024-.052-.036-.109-.036-.171v-3.287c0-.111.04-.206.119-.286.08-.08.177-.12.292-.12h2.355c.076,0,.141.026.192.078.052.052.078.116.078.192s-.026.142-.078.195-.116.081-.192.081h-2.153v1.128h2.023c.076,0,.14.027.192.081.052.054.078.119.078.195,0,.073-.026.136-.078.19-.053.054-.116.081-.192.081h-2.023v1.336h2.194c.073,0,.137.027.19.081s.08.119.08.195-.026.141-.08.192c-.054.052-.117.078-.19.078h-2.396Z"/>
  </g>
  <g class="cls-13">
    <path class="cls-8" d="m51.024,253.009c4.628,0,8.379-3.751,8.379-8.379s-3.751-8.379-8.379-8.379-8.379,3.751-8.379,8.379,3.751,8.379,8.379,8.379"/>
    <circle class="cls-2" cx="51.024" cy="244.63" r="8.379"/>
    <path class="cls-8" d="m51.024,258.678c7.759,0,14.048-6.29,14.048-14.048s-6.289-14.048-14.048-14.048-14.048,6.289-14.048,14.048,6.289,14.048,14.048,14.048"/>
    <circle class="cls-2" cx="51.024" cy="244.63" r="14.048"/>
  </g>
  <g>
    <path class="cls-8" d="m47.997,216.663c.071-.081.167-.122.289-.122.107,0,.198.037.273.111.075.075.112.164.112.269v3.447c0,.076-.027.142-.081.195s-.119.08-.195.08c-.077,0-.141-.026-.192-.08-.052-.054-.078-.119-.078-.195v-2.668l-1.014,2.642c-.035.091-.084.163-.148.219-.064.056-.145.083-.242.083-.097,0-.177-.027-.242-.083-.064-.056-.113-.128-.148-.219l-1.014-2.642v2.668c0,.076-.026.142-.078.195-.052.054-.116.08-.192.08s-.141-.026-.195-.08-.081-.119-.081-.195v-3.447c0-.104.037-.193.112-.269.074-.074.166-.111.273-.111.121,0,.217.041.289.122.071.082.129.18.174.294l1.102,2.85,1.103-2.85c.045-.114.103-.212.174-.294Z"/>
    <path class="cls-8" d="m50.405,220.545c-.248-.114-.459-.269-.634-.463-.175-.194-.311-.419-.406-.676s-.143-.528-.143-.816c0-.284.048-.555.143-.812.095-.256.23-.481.406-.676.175-.194.386-.349.634-.463.248-.114.526-.172.834-.172s.587.058.834.172c.248.114.459.269.635.463.174.194.31.42.404.676.096.257.145.527.145.812,0,.288-.049.56-.145.816-.095.257-.23.481-.404.676-.176.194-.387.349-.635.463-.248.114-.526.172-.834.172s-.587-.058-.834-.172Zm2.129-2.605c-.073-.193-.172-.358-.299-.494-.126-.135-.274-.239-.444-.314-.17-.074-.354-.111-.551-.111s-.381.037-.551.111c-.17.075-.318.18-.444.314-.127.136-.227.301-.299.494-.073.194-.109.411-.109.65s.036.456.109.65c.073.193.172.359.299.496.126.137.274.243.444.317s.354.111.551.111.381-.037.551-.111.318-.181.444-.317c.127-.137.227-.303.299-.496.073-.194.108-.411.108-.65s-.035-.456-.108-.65Z"/>
    <path class="cls-8" d="m54.214,220.644c-.053,0-.103-.009-.151-.028s-.092-.046-.13-.081c-.038-.034-.069-.077-.094-.13-.024-.052-.036-.109-.036-.171v-3.287c0-.11.04-.206.119-.286.08-.079.177-.119.292-.119h1.232c.204,0,.408.035.613.104.204.07.388.186.551.347s.295.372.396.634.15.583.15.965c0,.385-.05.708-.15.97s-.232.474-.396.635-.347.276-.551.346c-.205.069-.409.104-.613.104h-1.232Zm.202-3.557v3.011h.91c.205,0,.383-.035.536-.106.152-.071.278-.172.379-.302s.175-.287.224-.473.073-.395.073-.627c0-.229-.024-.436-.073-.621s-.123-.344-.224-.474-.227-.23-.379-.302c-.153-.07-.331-.106-.536-.106h-.91Z"/>
  </g>
  <line class="cls-2" x1="51.024" y1="239.528" x2="51.024" y2="249.733"/>
  <line class="cls-2" x1="45.921" y1="244.63" x2="56.126" y2="244.63"/>
  <polygon class="cls-8" points="31.368 160.644 31.368 160.644 31.368 165.713 36.437 165.713 31.368 160.644"/>
  <polygon class="cls-5" points="31.368 160.644 31.368 160.644 31.368 165.713 36.437 165.713 31.368 160.644"/>
  <polygon class="cls-8" points="69.307 161.693 69.307 161.693 66.772 165.345 71.842 165.345 69.307 161.693"/>
  <polygon class="cls-5" points="69.307 161.693 69.307 161.693 66.772 165.345 71.842 165.345 69.307 161.693"/>
  <polygon class="cls-8" points="28.188 179.325 28.188 179.325 28.188 184.394 23.119 184.394 28.188 179.325"/>
  <polygon class="cls-5" points="28.188 179.325 28.188 179.325 28.188 184.394 23.119 184.394 28.188 179.325"/>
  <g class="cls-14">
    <path class="cls-8" d="m51.165,159.057c1.496,0,2.71-1.213,2.71-2.71s-1.214-2.709-2.71-2.709-2.71,1.213-2.71,2.709,1.213,2.71,2.71,2.71"/>
  </g>
  <line class="cls-4" x1="29.905" y1="199.077" x2="35.574" y2="199.077"/>
  <g class="cls-17">
    <path class="cls-4" d="m66.257,200.21c0-.768.274-2.068,1.299-2.068.793,0,1.248.438,1.482.885l.673-.956.089-.127h1.497v.3c0,.344,0,.688.002,1.032h1.381"/>
  </g>
  <rect class="cls-8" x="74.426" y="179.609" width="4.502" height="4.502"/>
  <rect class="cls-5" x="74.426" y="179.609" width="4.502" height="4.502"/>
  <g class="cls-20">
    <path class="cls-8" d="m29.764,291.071c2.505,0,4.535-2.031,4.535-4.535s-2.03-4.536-4.535-4.536-4.535,2.031-4.535,4.536,2.03,4.535,4.535,4.535"/>
  </g>
  <line class="cls-2" x1="29.764" y1="284.41" x2="29.764" y2="288.662"/>
  <line class="cls-2" x1="27.638" y1="286.536" x2="31.89" y2="286.536"/>
  <g class="cls-21">
    <path class="cls-8" d="m19.134,13.039c2.505,0,4.535-2.031,4.535-4.535s-2.03-4.536-4.535-4.536-4.535,2.031-4.535,4.536,2.03,4.535,4.535,4.535"/>
  </g>
  <line class="cls-2" x1="19.134" y1="6.378" x2="19.134" y2="10.63"/>
  <line class="cls-2" x1="17.008" y1="8.504" x2="21.26" y2="8.504"/>
  <g class="cls-19">
    <path class="cls-8" d="m82.913,360.284c2.505,0,4.535-2.031,4.535-4.535s-2.03-4.536-4.535-4.536-4.535,2.031-4.535,4.536,2.03,4.535,4.535,4.535"/>
  </g>
  <line class="cls-2" x1="82.913" y1="353.622" x2="82.913" y2="357.874"/>
  <line class="cls-2" x1="80.787" y1="355.748" x2="85.039" y2="355.748"/>
  <g class="cls-18">
    <path class="cls-8" d="m60.169,12.899c-.142,0-.271-.043-.387-.129-.117-.086-.21-.229-.279-.427s-.104-.471-.104-.816c0-.292.03-.57.09-.833.06-.262.141-.495.243-.697.102-.203.215-.353.338-.45.048-.037.103-.073.164-.107.062-.034.116-.05.164-.05s.072.056.072.168c0,.083-.02.135-.059.158-.048.03-.097.051-.146.062s-.1.036-.15.073c-.103.083-.197.208-.286.377-.089.169-.159.364-.212.585-.052.222-.078.456-.078.703,0,.278.029.495.09.653.06.157.138.27.234.337.096.067.199.101.31.101.156,0,.33-.051.521-.152s.383-.246.578-.433.379-.409.554-.664c.174-.255.323-.536.449-.844s.214-.634.262-.979c.009-.06.017-.124.022-.191.006-.068.009-.135.009-.203,0-.21-.021-.373-.065-.489-.043-.116-.101-.203-.171-.259-.07-.057-.146-.092-.225-.107-.08-.015-.155-.022-.228-.022-.156,0-.312.017-.471.05-.157.034-.315.051-.475.051-.09,0-.185-.019-.283-.056s-.183-.116-.25-.236c-.067-.12-.101-.304-.101-.551,0-.322.04-.607.121-.855s.188-.461.321-.641c.134-.18.279-.328.437-.444.158-.116.313-.201.466-.253.153-.052.29-.079.41-.079.068,0,.148.009.238.028.09.019.178.058.263.118.086.06.156.152.212.275s.083.287.083.489c0,.165-.017.285-.049.36-.033.075-.077.161-.131.258-.006.008-.013.017-.021.028s-.018.017-.029.017c-.018,0-.035-.017-.052-.051s-.024-.073-.024-.118c0-.067.014-.116.04-.146.027-.03.054-.067.079-.112s.038-.124.038-.236c0-.135-.024-.242-.074-.32-.05-.079-.111-.137-.185-.175-.073-.037-.146-.062-.216-.073s-.128-.017-.173-.017c-.1,0-.214.021-.343.062s-.262.105-.397.191c-.137.086-.266.197-.388.332-.121.135-.224.298-.306.489-.083.191-.136.415-.16.669-.003.03-.005.059-.007.084,0,.026-.002.055-.002.084,0,.18.028.31.086.388.057.079.124.125.202.141s.147.022.207.022c.159,0,.316-.015.473-.045s.312-.045.468-.045c.093,0,.188.013.286.039.098.026.188.079.27.158.083.079.149.195.2.349s.077.358.077.613c0,.165-.014.333-.041.506-.054.382-.146.741-.279,1.074-.132.333-.289.636-.472.906-.184.27-.378.502-.583.697-.206.195-.409.345-.612.45-.202.105-.391.157-.564.157Z"/>
    <path class="cls-6" d="m60.169,12.899c-.142,0-.271-.043-.387-.129-.117-.086-.21-.229-.279-.427s-.104-.471-.104-.816c0-.292.03-.57.09-.833.06-.262.141-.495.243-.697.102-.203.215-.353.338-.45.048-.037.103-.073.164-.107.062-.034.116-.05.164-.05s.072.056.072.168c0,.083-.02.135-.059.158-.048.03-.097.051-.146.062s-.1.036-.15.073c-.103.083-.197.208-.286.377-.089.169-.159.364-.212.585-.052.222-.078.456-.078.703,0,.278.029.495.09.653.06.157.138.27.234.337.096.067.199.101.31.101.156,0,.33-.051.521-.152s.383-.246.578-.433.379-.409.554-.664c.174-.255.323-.536.449-.844s.214-.634.262-.979c.009-.06.017-.124.022-.191.006-.068.009-.135.009-.203,0-.21-.021-.373-.065-.489-.043-.116-.101-.203-.171-.259-.07-.057-.146-.092-.225-.107-.08-.015-.155-.022-.228-.022-.156,0-.312.017-.471.05-.157.034-.315.051-.475.051-.09,0-.185-.019-.283-.056s-.183-.116-.25-.236c-.067-.12-.101-.304-.101-.551,0-.322.04-.607.121-.855s.188-.461.321-.641c.134-.18.279-.328.437-.444.158-.116.313-.201.466-.253.153-.052.29-.079.41-.079.068,0,.148.009.238.028.09.019.178.058.263.118.086.06.156.152.212.275s.083.287.083.489c0,.165-.017.285-.049.36-.033.075-.077.161-.131.258-.006.008-.013.017-.021.028s-.018.017-.029.017c-.018,0-.035-.017-.052-.051s-.024-.073-.024-.118c0-.067.014-.116.04-.146.027-.03.054-.067.079-.112s.038-.124.038-.236c0-.135-.024-.242-.074-.32-.05-.079-.111-.137-.185-.175-.073-.037-.146-.062-.216-.073s-.128-.017-.173-.017c-.1,0-.214.021-.343.062s-.262.105-.397.191c-.137.086-.266.197-.388.332-.121.135-.224.298-.306.489-.083.191-.136.415-.16.669-.003.03-.005.059-.007.084,0,.026-.002.055-.002.084,0,.18.028.31.086.388.057.079.124.125.202.141s.147.022.207.022c.159,0,.316-.015.473-.045s.312-.045.468-.045c.093,0,.188.013.286.039.098.026.188.079.27.158.083.079.149.195.2.349s.077.358.077.613c0,.165-.014.333-.041.506-.054.382-.146.741-.279,1.074-.132.333-.289.636-.472.906-.184.27-.378.502-.583.697-.206.195-.409.345-.612.45-.202.105-.391.157-.564.157Z"/>
    <path class="cls-8" d="m64.304,16.083c-.065,0-.137-.021-.213-.062-.077-.042-.143-.111-.196-.208-.054-.098-.081-.236-.081-.417,0-.157.03-.313.09-.467.061-.154.13-.292.21-.417.079-.124.146-.219.2-.287.152-.195.323-.36.511-.495.188-.135.378-.246.573-.332.195-.086.38-.148.554-.186.057-.172.109-.349.157-.529.048-.18.093-.364.135-.551.12-.555.231-1.123.333-1.704.103-.581.2-1.161.293-1.738l-.018-.011c-.063.218-.141.477-.232.776s-.193.607-.306.922-.232.607-.36.877c-.127.27-.257.488-.389.653-.133.165-.265.248-.396.248-.149,0-.256-.094-.317-.281s-.092-.432-.092-.731c0-.33.026-.669.078-1.018.053-.349.113-.662.183-.939.105-.42.212-.842.319-1.266.108-.424.206-.857.293-1.299.021-.098.044-.217.069-.36s.049-.287.07-.433c.021-.146.031-.272.031-.377,0-.113-.018-.203-.052-.27s-.076-.114-.124-.141-.093-.04-.135-.04c-.093,0-.195.036-.306.107-.111.071-.22.16-.324.264-.105.105-.2.207-.283.304-.085.097-.179.244-.281.438-.104.195-.202.415-.295.658-.094.244-.17.493-.229.748-.061.255-.09.495-.09.72,0,.255.042.435.128.54.085.105.179.157.281.157.072,0,.144-.021.216-.062.072-.041.138-.099.198-.174.018-.022.034-.034.049-.034.021,0,.039.017.055.051.015.034.022.073.022.118,0,.075-.022.139-.067.191-.045.053-.1.096-.162.129-.063.034-.122.059-.178.073-.056.015-.096.022-.119.022-.094,0-.184-.035-.271-.107-.087-.071-.157-.18-.211-.326-.055-.146-.081-.332-.081-.557,0-.263.03-.536.092-.821s.141-.561.238-.827c.098-.266.203-.506.315-.72s.218-.381.317-.5c.141-.173.302-.328.481-.467.18-.139.351-.208.513-.208.066,0,.133.019.2.056.067.038.125.104.171.197.047.094.07.227.07.399,0,.21-.019.443-.057.698-.037.255-.075.48-.114.675-.088.45-.187.889-.297,1.316-.111.428-.22.855-.324,1.283-.039.165-.08.353-.124.562s-.08.424-.11.641c-.03.218-.045.42-.045.607,0,.45.105.675.315.675.113,0,.225-.071.333-.213.107-.143.21-.313.306-.512.096-.198.177-.384.243-.557.149-.375.288-.772.414-1.192s.246-.844.359-1.271c.033-.127.067-.257.102-.388.034-.131.066-.26.097-.388.019-.067.035-.139.052-.213.017-.075.035-.143.057-.203.012-.038.025-.075.04-.113.015-.037.034-.056.059-.056s.041.021.052.062c.011.042.016.084.016.129s-.004.09-.014.135c-.06.405-.123.81-.19,1.215-.068.405-.137.806-.205,1.204-.081.473-.164.945-.248,1.417s-.175.938-.274,1.395c-.065.292-.141.592-.225.9.036-.007.072-.011.108-.011h.103c.055,0,.126.006.214.017.089.011.181.026.277.045.096.019.186.043.27.073.084.03.15.067.198.112.039.038.059.094.059.169,0,.037-.006.075-.019.112-.012.038-.029.056-.054.056-.012,0-.021-.004-.026-.011-.046-.038-.091-.065-.138-.084-.047-.019-.094-.036-.142-.05-.192-.068-.386-.102-.581-.102-.065,0-.131.004-.195.011-.064.008-.13.019-.195.034-.1.292-.212.588-.338.889-.126.3-.262.574-.407.821-.146.247-.302.446-.468.596-.167.15-.34.225-.521.225Zm-.062-.281c.084,0,.171-.025.261-.073.09-.049.173-.104.248-.163.138-.113.272-.276.404-.49.132-.213.257-.452.374-.714.117-.262.219-.514.306-.753-.243.045-.491.141-.744.287-.254.146-.487.351-.7.613-.042.052-.096.127-.162.225-.066.097-.124.204-.176.32-.051.116-.076.238-.076.366,0,.158.03.261.09.31.061.048.119.073.176.073Z"/>
    <path class="cls-6" d="m64.304,16.083c-.065,0-.137-.021-.213-.062-.077-.042-.143-.111-.196-.208-.054-.098-.081-.236-.081-.417,0-.157.03-.313.09-.467.061-.154.13-.292.21-.417.079-.124.146-.219.2-.287.152-.195.323-.36.511-.495.188-.135.378-.246.573-.332.195-.086.38-.148.554-.186.057-.172.109-.349.157-.529.048-.18.093-.364.135-.551.12-.555.231-1.123.333-1.704.103-.581.2-1.161.293-1.738l-.018-.011c-.063.218-.141.477-.232.776s-.193.607-.306.922-.232.607-.36.877c-.127.27-.257.488-.389.653-.133.165-.265.248-.396.248-.149,0-.256-.094-.317-.281s-.092-.432-.092-.731c0-.33.026-.669.078-1.018.053-.349.113-.662.183-.939.105-.42.212-.842.319-1.266.108-.424.206-.857.293-1.299.021-.098.044-.217.069-.36s.049-.287.07-.433c.021-.146.031-.272.031-.377,0-.113-.018-.203-.052-.27s-.076-.114-.124-.141-.093-.04-.135-.04c-.093,0-.195.036-.306.107-.111.071-.22.16-.324.264-.105.105-.2.207-.283.304-.085.097-.179.244-.281.438-.104.195-.202.415-.295.658-.094.244-.17.493-.229.748-.061.255-.09.495-.09.72,0,.255.042.435.128.54.085.105.179.157.281.157.072,0,.144-.021.216-.062.072-.041.138-.099.198-.174.018-.022.034-.034.049-.034.021,0,.039.017.055.051.015.034.022.073.022.118,0,.075-.022.139-.067.191-.045.053-.1.096-.162.129-.063.034-.122.059-.178.073-.056.015-.096.022-.119.022-.094,0-.184-.035-.271-.107-.087-.071-.157-.18-.211-.326-.055-.146-.081-.332-.081-.557,0-.263.03-.536.092-.821s.141-.561.238-.827c.098-.266.203-.506.315-.72s.218-.381.317-.5c.141-.173.302-.328.481-.467.18-.139.351-.208.513-.208.066,0,.133.019.2.056.067.038.125.104.171.197.047.094.07.227.07.399,0,.21-.019.443-.057.698-.037.255-.075.48-.114.675-.088.45-.187.889-.297,1.316-.111.428-.22.855-.324,1.283-.039.165-.08.353-.124.562s-.08.424-.11.641c-.03.218-.045.42-.045.607,0,.45.105.675.315.675.113,0,.225-.071.333-.213.107-.143.21-.313.306-.512.096-.198.177-.384.243-.557.149-.375.288-.772.414-1.192s.246-.844.359-1.271c.033-.127.067-.257.102-.388.034-.131.066-.26.097-.388.019-.067.035-.139.052-.213.017-.075.035-.143.057-.203.012-.038.025-.075.04-.113.015-.037.034-.056.059-.056s.041.021.052.062c.011.042.016.084.016.129s-.004.09-.014.135c-.06.405-.123.81-.19,1.215-.068.405-.137.806-.205,1.204-.081.473-.164.945-.248,1.417s-.175.938-.274,1.395c-.065.292-.141.592-.225.9.036-.007.072-.011.108-.011h.103c.055,0,.126.006.214.017.089.011.181.026.277.045.096.019.186.043.27.073.084.03.15.067.198.112.039.038.059.094.059.169,0,.037-.006.075-.019.112-.012.038-.029.056-.054.056-.012,0-.021-.004-.026-.011-.046-.038-.091-.065-.138-.084-.047-.019-.094-.036-.142-.05-.192-.068-.386-.102-.581-.102-.065,0-.131.004-.195.011-.064.008-.13.019-.195.034-.1.292-.212.588-.338.889-.126.3-.262.574-.407.821-.146.247-.302.446-.468.596-.167.15-.34.225-.521.225Zm-.062-.281c.084,0,.171-.025.261-.073.09-.049.173-.104.248-.163.138-.113.272-.276.404-.49.132-.213.257-.452.374-.714.117-.262.219-.514.306-.753-.243.045-.491.141-.744.287-.254.146-.487.351-.7.613-.042.052-.096.127-.162.225-.066.097-.124.204-.176.32-.051.116-.076.238-.076.366,0,.158.03.261.09.31.061.048.119.073.176.073Z"/>
    <path class="cls-8" d="m71.311,13.282c-.045,0-.08-.045-.105-.135-.026-.09-.043-.193-.052-.31-.01-.116-.014-.208-.014-.275,0-.127.005-.251.016-.371.011-.12.021-.24.033-.36.069-.555.157-1.089.264-1.603s.219-1.021.335-1.524c.058-.248.119-.542.188-.883.067-.341.126-.688.178-1.041.051-.352.076-.667.076-.945,0-.18-.018-.343-.052-.489-.034-.146-.102-.219-.2-.219h-.009c-.139,0-.282.101-.433.304-.149.202-.299.467-.447.793s-.29.675-.426,1.046c-.135.371-.257.731-.366,1.08-.109.349-.199.643-.268.883-.049.165-.092.332-.131.5-.039.169-.079.34-.121.512-.058.255-.116.514-.176.776-.061.262-.12.521-.18.776-.024.12-.05.236-.077.349-.026.112-.056.225-.085.337-.003.015-.014.035-.032.062-.018.026-.031.04-.04.04-.019,0-.034-.017-.05-.051-.015-.034-.022-.073-.022-.118,0-.015,0-.026.002-.034.002-.007.003-.015.003-.022.078-.42.163-.838.256-1.254.094-.416.182-.831.266-1.243.156-.757.298-1.524.426-2.3.127-.776.223-1.573.285-2.391.003-.038.006-.077.007-.118.002-.041.003-.084.003-.129,0-.248-.033-.424-.1-.529-.065-.105-.151-.158-.256-.158-.088,0-.186.03-.295.09s-.217.137-.322.23c-.104.094-.196.193-.274.298-.111.143-.227.322-.347.54-.12.217-.231.45-.335.697s-.188.495-.254.743c-.042.165-.077.349-.104.551-.027.202-.041.401-.041.596,0,.232.025.416.074.551.05.135.132.202.245.202.081,0,.146-.037.191-.112.047-.075.09-.112.129-.112.038,0,.058.041.058.124,0,.09-.023.167-.071.23-.048.064-.103.113-.162.146-.061.034-.106.051-.14.051-.153,0-.271-.1-.355-.298s-.126-.459-.126-.782c0-.225.017-.454.05-.687.032-.232.074-.446.126-.641.068-.255.159-.512.271-.771.113-.259.233-.502.362-.731.129-.229.249-.418.36-.568.087-.12.189-.234.306-.343.117-.109.236-.197.358-.265.121-.067.231-.101.33-.101.15,0,.268.083.352.248s.126.413.126.743c0,.217-.015.48-.043.787-.028.308-.065.626-.11.957s-.091.645-.137.945c-.047.3-.088.559-.124.776l.018.022c.069-.21.157-.465.264-.765.106-.3.225-.611.355-.934.131-.322.268-.623.412-.9.144-.277.286-.504.427-.681.142-.176.276-.265.405-.265.145,0,.25.083.317.248.067.165.102.401.102.709s-.027.651-.081,1.029c-.055.379-.118.75-.191,1.114s-.142.681-.205.951c-.114.495-.223.994-.326,1.496s-.189,1.024-.259,1.564c-.015.12-.029.24-.043.36-.013.12-.02.244-.02.371,0,.135.009.221.026.259.019.038.036.064.055.079.018.015.026.056.026.124,0,.045-.008.084-.022.118s-.033.051-.054.051Z"/>
    <path class="cls-6" d="m71.311,13.282c-.045,0-.08-.045-.105-.135-.026-.09-.043-.193-.052-.31-.01-.116-.014-.208-.014-.275,0-.127.005-.251.016-.371.011-.12.021-.24.033-.36.069-.555.157-1.089.264-1.603s.219-1.021.335-1.524c.058-.248.119-.542.188-.883.067-.341.126-.688.178-1.041.051-.352.076-.667.076-.945,0-.18-.018-.343-.052-.489-.034-.146-.102-.219-.2-.219h-.009c-.139,0-.282.101-.433.304-.149.202-.299.467-.447.793s-.29.675-.426,1.046c-.135.371-.257.731-.366,1.08-.109.349-.199.643-.268.883-.049.165-.092.332-.131.5-.039.169-.079.34-.121.512-.058.255-.116.514-.176.776-.061.262-.12.521-.18.776-.024.12-.05.236-.077.349-.026.112-.056.225-.085.337-.003.015-.014.035-.032.062-.018.026-.031.04-.04.04-.019,0-.034-.017-.05-.051-.015-.034-.022-.073-.022-.118,0-.015,0-.026.002-.034.002-.007.003-.015.003-.022.078-.42.163-.838.256-1.254.094-.416.182-.831.266-1.243.156-.757.298-1.524.426-2.3.127-.776.223-1.573.285-2.391.003-.038.006-.077.007-.118.002-.041.003-.084.003-.129,0-.248-.033-.424-.1-.529-.065-.105-.151-.158-.256-.158-.088,0-.186.03-.295.09s-.217.137-.322.23c-.104.094-.196.193-.274.298-.111.143-.227.322-.347.54-.12.217-.231.45-.335.697s-.188.495-.254.743c-.042.165-.077.349-.104.551-.027.202-.041.401-.041.596,0,.232.025.416.074.551.05.135.132.202.245.202.081,0,.146-.037.191-.112.047-.075.09-.112.129-.112.038,0,.058.041.058.124,0,.09-.023.167-.071.23-.048.064-.103.113-.162.146-.061.034-.106.051-.14.051-.153,0-.271-.1-.355-.298s-.126-.459-.126-.782c0-.225.017-.454.05-.687.032-.232.074-.446.126-.641.068-.255.159-.512.271-.771.113-.259.233-.502.362-.731.129-.229.249-.418.36-.568.087-.12.189-.234.306-.343.117-.109.236-.197.358-.265.121-.067.231-.101.33-.101.15,0,.268.083.352.248s.126.413.126.743c0,.217-.015.48-.043.787-.028.308-.065.626-.11.957s-.091.645-.137.945c-.047.3-.088.559-.124.776l.018.022c.069-.21.157-.465.264-.765.106-.3.225-.611.355-.934.131-.322.268-.623.412-.9.144-.277.286-.504.427-.681.142-.176.276-.265.405-.265.145,0,.25.083.317.248.067.165.102.401.102.709s-.027.651-.081,1.029c-.055.379-.118.75-.191,1.114s-.142.681-.205.951c-.114.495-.223.994-.326,1.496s-.189,1.024-.259,1.564c-.015.12-.029.24-.043.36-.013.12-.02.244-.02.371,0,.135.009.221.026.259.019.038.036.064.055.079.018.015.026.056.026.124,0,.045-.008.084-.022.118s-.033.051-.054.051Z"/>
    <path class="cls-8" d="m74.101,13.327c-.246,0-.463-.128-.65-.383s-.335-.598-.441-1.029-.159-.906-.159-1.423c0-.383.025-.767.076-1.153s.12-.759.207-1.119c.087-.36.185-.683.293-.968-.013-.067-.021-.137-.027-.208s-.009-.141-.009-.208v-.045c0-.06.004-.114.011-.163.008-.048.026-.073.057-.073.023,0,.044.015.061.045s.024.071.024.124c0,.045,0,.088-.002.129-.002.042-.002.084-.002.129.233-.562.509-1.033.825-1.412.316-.379.647-.628.992-.749.045-.015.091-.026.136-.034.045-.007.09-.011.135-.011.12,0,.24.042.362.124.121.083.224.214.306.394.083.18.124.424.124.731,0,.172-.016.341-.045.506-.03.165-.069.315-.117.45-.12.353-.273.634-.459.844-.187.21-.385.358-.597.444-.211.086-.413.129-.604.129-.117,0-.244-.032-.381-.096-.137-.063-.267-.161-.392-.292-.124-.131-.227-.294-.308-.489-.145.42-.266.881-.365,1.384-.099.502-.148,1.02-.148,1.553,0,.465.047.889.14,1.271s.223.685.39.906c.166.221.359.332.578.332.165,0,.338-.077.518-.23s.365-.433.556-.838c.19-.405.382-.975.574-1.71.009-.038.025-.064.049-.079.048,0,.072.053.072.158,0,.03-.005.064-.014.101-.123.548-.271,1.044-.443,1.491-.172.446-.369.802-.589,1.069-.221.266-.465.399-.731.399Zm.495-5.254c.171,0,.353-.036.544-.107.192-.071.375-.193.549-.366.175-.172.316-.409.428-.708.042-.12.077-.251.105-.394.029-.142.043-.289.043-.438,0-.248-.033-.44-.099-.58-.066-.139-.147-.238-.243-.298s-.192-.09-.288-.09c-.039,0-.079.004-.121.011-.042.008-.084.019-.126.034-.336.12-.662.373-.977.759-.315.386-.584.857-.806,1.412.06.18.149.326.268.439.118.112.244.195.376.248.132.052.247.079.347.079Z"/>
    <path class="cls-6" d="m74.101,13.327c-.246,0-.463-.128-.65-.383s-.335-.598-.441-1.029-.159-.906-.159-1.423c0-.383.025-.767.076-1.153s.12-.759.207-1.119c.087-.36.185-.683.293-.968-.013-.067-.021-.137-.027-.208s-.009-.141-.009-.208v-.045c0-.06.004-.114.011-.163.008-.048.026-.073.057-.073.023,0,.044.015.061.045s.024.071.024.124c0,.045,0,.088-.002.129-.002.042-.002.084-.002.129.233-.562.509-1.033.825-1.412.316-.379.647-.628.992-.749.045-.015.091-.026.136-.034.045-.007.09-.011.135-.011.12,0,.24.042.362.124.121.083.224.214.306.394.083.18.124.424.124.731,0,.172-.016.341-.045.506-.03.165-.069.315-.117.45-.12.353-.273.634-.459.844-.187.21-.385.358-.597.444-.211.086-.413.129-.604.129-.117,0-.244-.032-.381-.096-.137-.063-.267-.161-.392-.292-.124-.131-.227-.294-.308-.489-.145.42-.266.881-.365,1.384-.099.502-.148,1.02-.148,1.553,0,.465.047.889.14,1.271s.223.685.39.906c.166.221.359.332.578.332.165,0,.338-.077.518-.23s.365-.433.556-.838c.19-.405.382-.975.574-1.71.009-.038.025-.064.049-.079.048,0,.072.053.072.158,0,.03-.005.064-.014.101-.123.548-.271,1.044-.443,1.491-.172.446-.369.802-.589,1.069-.221.266-.465.399-.731.399Zm.495-5.254c.171,0,.353-.036.544-.107.192-.071.375-.193.549-.366.175-.172.316-.409.428-.708.042-.12.077-.251.105-.394.029-.142.043-.289.043-.438,0-.248-.033-.44-.099-.58-.066-.139-.147-.238-.243-.298s-.192-.09-.288-.09c-.039,0-.079.004-.121.011-.042.008-.084.019-.126.034-.336.12-.662.373-.977.759-.315.386-.584.857-.806,1.412.06.18.149.326.268.439.118.112.244.195.376.248.132.052.247.079.347.079Z"/>
    <path class="cls-8" d="m77.161,21.316c-.189,0-.379-.06-.569-.18s-.38-.274-.567-.461-.37-.386-.549-.596-.352-.401-.52-.574c-.084.218-.181.432-.288.642-.108.209-.225.382-.352.517-.126.135-.259.203-.4.203-.104,0-.204-.043-.297-.129s-.168-.216-.225-.388-.086-.378-.086-.619c0-.277.034-.504.102-.681s.153-.308.257-.394c.104-.086.21-.129.321-.129.15,0,.309.06.478.18.168.12.32.244.459.372.087-.263.168-.533.245-.81.076-.277.147-.559.214-.844-.223-.06-.407-.225-.557-.495-.148-.27-.223-.664-.223-1.181,0-.375.045-.733.133-1.074.089-.341.21-.606.362-.793.042-.052.093-.103.153-.152.06-.049.112-.073.157-.073.048,0,.072.053.072.158,0,.09-.021.146-.063.169-.042.03-.083.054-.123.073-.041.019-.082.055-.124.107-.129.15-.233.374-.312.669-.08.296-.119.606-.119.928,0,.315.034.566.104.754.068.188.158.324.268.411.109.086.227.144.354.174.116-.547.237-1.095.361-1.643.125-.547.261-1.076.407-1.586.042-.15.095-.317.158-.5.062-.184.134-.362.214-.534.079-.173.162-.313.249-.422.087-.109.176-.164.266-.164.142,0,.246.096.315.287.068.191.104.429.104.714,0,.315-.03.641-.09.979-.061.338-.136.658-.228.962s-.186.568-.281.793c-.174.413-.381.757-.621,1.035-.24.278-.492.417-.756.417-.075.308-.153.611-.234.911-.081.3-.169.589-.266.866.159.18.323.372.491.574.168.203.34.396.518.58.177.184.356.333.54.45.183.116.365.175.549.175.084,0,.17-.028.259-.084.088-.056.164-.145.227-.265.016-.038.033-.056.055-.056.021,0,.039.017.054.051s.022.069.022.107c0,.037-.008.075-.022.112-.036.083-.085.159-.146.23s-.125.127-.191.169c-.065.041-.124.062-.175.062h-.081Zm-3.231-.776c.123,0,.238-.058.347-.174s.209-.265.304-.444c.095-.18.18-.364.254-.551-.126-.127-.264-.248-.414-.36-.149-.112-.295-.168-.437-.168-.08,0-.161.032-.242.096-.081.063-.148.159-.2.287-.053.128-.079.296-.079.506,0,.188.023.339.069.456.047.116.106.204.178.265.072.06.146.09.221.09Zm1.719-3.454c.229-.038.443-.176.646-.417.202-.24.382-.54.537-.9.058-.135.117-.31.181-.523.062-.214.122-.444.178-.692.055-.248.101-.49.135-.726.034-.236.052-.445.052-.625,0-.188-.021-.339-.065-.456-.043-.116-.11-.174-.2-.174-.075,0-.15.052-.225.157-.075.105-.146.236-.212.394-.066.157-.126.319-.18.483-.055.165-.1.308-.135.428-.13.458-.253.958-.372,1.502-.118.543-.231,1.059-.34,1.547Z"/>
    <path class="cls-6" d="m77.161,21.316c-.189,0-.379-.06-.569-.18s-.38-.274-.567-.461-.37-.386-.549-.596-.352-.401-.52-.574c-.084.218-.181.432-.288.642-.108.209-.225.382-.352.517-.126.135-.259.203-.4.203-.104,0-.204-.043-.297-.129s-.168-.216-.225-.388-.086-.378-.086-.619c0-.277.034-.504.102-.681s.153-.308.257-.394c.104-.086.21-.129.321-.129.15,0,.309.06.478.18.168.12.32.244.459.372.087-.263.168-.533.245-.81.076-.277.147-.559.214-.844-.223-.06-.407-.225-.557-.495-.148-.27-.223-.664-.223-1.181,0-.375.045-.733.133-1.074.089-.341.21-.606.362-.793.042-.052.093-.103.153-.152.06-.049.112-.073.157-.073.048,0,.072.053.072.158,0,.09-.021.146-.063.169-.042.03-.083.054-.123.073-.041.019-.082.055-.124.107-.129.15-.233.374-.312.669-.08.296-.119.606-.119.928,0,.315.034.566.104.754.068.188.158.324.268.411.109.086.227.144.354.174.116-.547.237-1.095.361-1.643.125-.547.261-1.076.407-1.586.042-.15.095-.317.158-.5.062-.184.134-.362.214-.534.079-.173.162-.313.249-.422.087-.109.176-.164.266-.164.142,0,.246.096.315.287.068.191.104.429.104.714,0,.315-.03.641-.09.979-.061.338-.136.658-.228.962s-.186.568-.281.793c-.174.413-.381.757-.621,1.035-.24.278-.492.417-.756.417-.075.308-.153.611-.234.911-.081.3-.169.589-.266.866.159.18.323.372.491.574.168.203.34.396.518.58.177.184.356.333.54.45.183.116.365.175.549.175.084,0,.17-.028.259-.084.088-.056.164-.145.227-.265.016-.038.033-.056.055-.056.021,0,.039.017.054.051s.022.069.022.107c0,.037-.008.075-.022.112-.036.083-.085.159-.146.23s-.125.127-.191.169c-.065.041-.124.062-.175.062h-.081Zm-3.231-.776c.123,0,.238-.058.347-.174s.209-.265.304-.444c.095-.18.18-.364.254-.551-.126-.127-.264-.248-.414-.36-.149-.112-.295-.168-.437-.168-.08,0-.161.032-.242.096-.081.063-.148.159-.2.287-.053.128-.079.296-.079.506,0,.188.023.339.069.456.047.116.106.204.178.265.072.06.146.09.221.09Zm1.719-3.454c.229-.038.443-.176.646-.417.202-.24.382-.54.537-.9.058-.135.117-.31.181-.523.062-.214.122-.444.178-.692.055-.248.101-.49.135-.726.034-.236.052-.445.052-.625,0-.188-.021-.339-.065-.456-.043-.116-.11-.174-.2-.174-.075,0-.15.052-.225.157-.075.105-.146.236-.212.394-.066.157-.126.319-.18.483-.055.165-.1.308-.135.428-.13.458-.253.958-.372,1.502-.118.543-.231,1.059-.34,1.547Z"/>
    <path class="cls-8" d="m78.263,20.697c-.243,0-.429-.163-.558-.489s-.193-.74-.193-1.243c0-.262.029-.525.09-.787.06-.263.14-.497.238-.703.1-.207.206-.347.319-.422.006,0,.011-.002.014-.006s.006-.006.009-.006c.048,0,.072.057.072.169,0,.067-.018.12-.054.158-.021.022-.042.041-.063.056-.021.015-.042.038-.062.067-.097.127-.185.313-.266.557s-.131.489-.148.737c-.003.03-.005.062-.005.096v.106c0,.405.054.737.16.996.106.259.256.388.447.388.178,0,.343-.084.497-.253.155-.169.297-.39.426-.664.129-.274.245-.572.349-.895s.192-.634.268-.934c.016-.06.029-.12.043-.18s.026-.12.038-.18c-.093.015-.187.028-.281.04s-.188.017-.281.017c-.039,0-.084-.009-.135-.028s-.096-.058-.133-.118-.057-.146-.057-.259c0-.09.022-.197.068-.321.045-.124.09-.186.135-.186.048,0,.071.056.071.169,0,.075-.018.125-.054.152s-.054.073-.054.141c0,.06.022.096.067.107s.078.017.099.017c.105,0,.21-.009.313-.028s.206-.04.308-.062c.097-.547.181-1.106.255-1.676.073-.57.139-1.14.195-1.71-.237-.172-.491-.337-.763-.495-.271-.157-.531-.236-.78-.236-.088,0-.176.011-.266.034-.066.023-.14.068-.221.135s-.157.156-.229.264c-.072.109-.132.235-.178.377-.047.143-.07.3-.07.473,0,.21.036.392.108.545.072.154.154.231.247.231.052,0,.077.052.077.157s-.025.158-.077.158c-.087,0-.169-.047-.247-.141s-.141-.223-.187-.388c-.047-.165-.07-.345-.07-.54,0-.217.026-.416.079-.596s.121-.341.205-.484c.084-.142.174-.259.27-.349s.188-.146.274-.169c.081-.022.165-.034.252-.034.258,0,.528.079.811.236.281.158.544.33.787.518.006-.06.013-.124.021-.191s.016-.127.024-.18c.016-.083.039-.124.072-.124.021,0,.039.013.054.04.016.026.022.062.022.107,0,.075-.005.154-.016.236-.011.083-.019.162-.024.236.09.075.202.169.337.281.136.113.277.225.426.338.148.112.29.208.425.287.136.079.249.118.343.118.068,0,.131-.024.187-.073s.098-.144.128-.287c.009-.038.019-.068.027-.09s.023-.034.045-.034c.021,0,.04.015.059.045.018.03.026.068.026.113,0,.007,0,.017-.002.028s-.002.021-.002.028c-.03.188-.085.334-.164.439-.08.105-.165.157-.255.157-.093,0-.21-.041-.351-.124-.142-.083-.29-.184-.448-.304-.157-.12-.308-.24-.449-.36-.143-.12-.263-.213-.358-.281-.057.548-.117,1.093-.182,1.637-.065.543-.146,1.078-.241,1.603.096-.015.192-.034.288-.056s.19-.034.283-.034c.051,0,.077.052.077.157,0,.112-.026.169-.077.169-.093,0-.198.015-.317.045-.118.03-.226.052-.321.067-.078.382-.175.776-.29,1.181-.116.405-.249.782-.4,1.131-.152.349-.32.632-.505.849-.184.218-.385.326-.601.326Z"/>
    <path class="cls-6" d="m78.263,20.697c-.243,0-.429-.163-.558-.489s-.193-.74-.193-1.243c0-.262.029-.525.09-.787.06-.263.14-.497.238-.703.1-.207.206-.347.319-.422.006,0,.011-.002.014-.006s.006-.006.009-.006c.048,0,.072.057.072.169,0,.067-.018.12-.054.158-.021.022-.042.041-.063.056-.021.015-.042.038-.062.067-.097.127-.185.313-.266.557s-.131.489-.148.737c-.003.03-.005.062-.005.096v.106c0,.405.054.737.16.996.106.259.256.388.447.388.178,0,.343-.084.497-.253.155-.169.297-.39.426-.664.129-.274.245-.572.349-.895s.192-.634.268-.934c.016-.06.029-.12.043-.18s.026-.12.038-.18c-.093.015-.187.028-.281.04s-.188.017-.281.017c-.039,0-.084-.009-.135-.028s-.096-.058-.133-.118-.057-.146-.057-.259c0-.09.022-.197.068-.321.045-.124.09-.186.135-.186.048,0,.071.056.071.169,0,.075-.018.125-.054.152s-.054.073-.054.141c0,.06.022.096.067.107s.078.017.099.017c.105,0,.21-.009.313-.028s.206-.04.308-.062c.097-.547.181-1.106.255-1.676.073-.57.139-1.14.195-1.71-.237-.172-.491-.337-.763-.495-.271-.157-.531-.236-.78-.236-.088,0-.176.011-.266.034-.066.023-.14.068-.221.135s-.157.156-.229.264c-.072.109-.132.235-.178.377-.047.143-.07.3-.07.473,0,.21.036.392.108.545.072.154.154.231.247.231.052,0,.077.052.077.157s-.025.158-.077.158c-.087,0-.169-.047-.247-.141s-.141-.223-.187-.388c-.047-.165-.07-.345-.07-.54,0-.217.026-.416.079-.596s.121-.341.205-.484c.084-.142.174-.259.27-.349s.188-.146.274-.169c.081-.022.165-.034.252-.034.258,0,.528.079.811.236.281.158.544.33.787.518.006-.06.013-.124.021-.191s.016-.127.024-.18c.016-.083.039-.124.072-.124.021,0,.039.013.054.04.016.026.022.062.022.107,0,.075-.005.154-.016.236-.011.083-.019.162-.024.236.09.075.202.169.337.281.136.113.277.225.426.338.148.112.29.208.425.287.136.079.249.118.343.118.068,0,.131-.024.187-.073s.098-.144.128-.287c.009-.038.019-.068.027-.09s.023-.034.045-.034c.021,0,.04.015.059.045.018.03.026.068.026.113,0,.007,0,.017-.002.028s-.002.021-.002.028c-.03.188-.085.334-.164.439-.08.105-.165.157-.255.157-.093,0-.21-.041-.351-.124-.142-.083-.29-.184-.448-.304-.157-.12-.308-.24-.449-.36-.143-.12-.263-.213-.358-.281-.057.548-.117,1.093-.182,1.637-.065.543-.146,1.078-.241,1.603.096-.015.192-.034.288-.056s.19-.034.283-.034c.051,0,.077.052.077.157,0,.112-.026.169-.077.169-.093,0-.198.015-.317.045-.118.03-.226.052-.321.067-.078.382-.175.776-.29,1.181-.116.405-.249.782-.4,1.131-.152.349-.32.632-.505.849-.184.218-.385.326-.601.326Z"/>
    <path class="cls-8" d="m82.579,21.068c-.049,0-.096-.006-.143-.017-.046-.011-.094-.021-.142-.028-.186-.06-.338-.224-.456-.49-.119-.266-.206-.585-.262-.956s-.083-.737-.083-1.097c0-.33.018-.654.052-.973s.08-.628.138-.928c.152-.78.36-1.474.623-2.082.263-.607.572-1.083.929-1.429l-.004-.045c-.156.015-.323.06-.5.135-.177.075-.35.18-.52.315-.17.135-.318.304-.447.506-.223.33-.333.784-.333,1.361,0,.105-.026.158-.077.158-.048,0-.072-.052-.072-.158,0-.682.131-1.218.392-1.608.156-.232.333-.424.531-.574s.402-.263.612-.338c.21-.075.406-.112.589-.112h.136c.045,0,.09.008.135.022.087-.052.176-.094.266-.124s.18-.045.27-.045c.033,0,.077.009.133.028.056.019.111.049.167.09.056.042.103.096.142.164.039.067.059.154.059.258,0,.045-.008.081-.022.107-.016.026-.033.04-.055.04-.021,0-.035-.011-.045-.034-.009-.022-.018-.052-.026-.09-.03-.127-.084-.201-.162-.22-.078-.019-.147-.028-.207-.028-.009,0-.019.002-.029.005-.011.004-.021.006-.034.006l-.004.045c.294.21.519.572.675,1.085.156.514.234,1.104.234,1.772,0,.547-.046,1.078-.136,1.592s-.214.994-.371,1.44c-.157.446-.341.838-.549,1.176-.209.337-.432.6-.671.788-.238.188-.481.281-.73.281Zm-.005-.326c.231,0,.459-.09.684-.27.226-.18.437-.428.635-.743s.372-.681.522-1.097c.149-.417.268-.866.353-1.35.086-.484.129-.98.129-1.491,0-.532-.052-.994-.153-1.384-.102-.39-.242-.699-.421-.928-.179-.229-.386-.369-.623-.422-.435.24-.813.685-1.134,1.333-.321.648-.567,1.419-.738,2.312-.057.285-.102.58-.135.883s-.05.613-.05.928c0,.308.022.621.067.939s.116.594.214.827.228.375.39.428c.042.015.085.024.13.028s.089.006.131.006Z"/>
    <path class="cls-6" d="m82.579,21.068c-.049,0-.096-.006-.143-.017-.046-.011-.094-.021-.142-.028-.186-.06-.338-.224-.456-.49-.119-.266-.206-.585-.262-.956s-.083-.737-.083-1.097c0-.33.018-.654.052-.973s.08-.628.138-.928c.152-.78.36-1.474.623-2.082.263-.607.572-1.083.929-1.429l-.004-.045c-.156.015-.323.06-.5.135-.177.075-.35.18-.52.315-.17.135-.318.304-.447.506-.223.33-.333.784-.333,1.361,0,.105-.026.158-.077.158-.048,0-.072-.052-.072-.158,0-.682.131-1.218.392-1.608.156-.232.333-.424.531-.574s.402-.263.612-.338c.21-.075.406-.112.589-.112h.136c.045,0,.09.008.135.022.087-.052.176-.094.266-.124s.18-.045.27-.045c.033,0,.077.009.133.028.056.019.111.049.167.09.056.042.103.096.142.164.039.067.059.154.059.258,0,.045-.008.081-.022.107-.016.026-.033.04-.055.04-.021,0-.035-.011-.045-.034-.009-.022-.018-.052-.026-.09-.03-.127-.084-.201-.162-.22-.078-.019-.147-.028-.207-.028-.009,0-.019.002-.029.005-.011.004-.021.006-.034.006l-.004.045c.294.21.519.572.675,1.085.156.514.234,1.104.234,1.772,0,.547-.046,1.078-.136,1.592s-.214.994-.371,1.44c-.157.446-.341.838-.549,1.176-.209.337-.432.6-.671.788-.238.188-.481.281-.73.281Zm-.005-.326c.231,0,.459-.09.684-.27.226-.18.437-.428.635-.743s.372-.681.522-1.097c.149-.417.268-.866.353-1.35.086-.484.129-.98.129-1.491,0-.532-.052-.994-.153-1.384-.102-.39-.242-.699-.421-.928-.179-.229-.386-.369-.623-.422-.435.24-.813.685-1.134,1.333-.321.648-.567,1.419-.738,2.312-.057.285-.102.58-.135.883s-.05.613-.05.928c0,.308.022.621.067.939s.116.594.214.827.228.375.39.428c.042.015.085.024.13.028s.089.006.131.006Z"/>
  </g>
</svg>