<?xml version="1.0" encoding="UTF-8"?>
<svg id="Ebene_1" data-name="Ebene 1" xmlns="http://www.w3.org/2000/svg" width="30.088mm" height="128.588mm" viewBox="0 0 85.289 364.502">
  <defs>
    <style>
      .cls-1, .cls-2 {
        fill: none;
        stroke: #1d1d1b;
        stroke-width: .25px;
      }

      .cls-2 {
        stroke-miterlimit: 10;
      }
    </style>
  </defs>
  <path class="cls-1" d="m63.904,326.487c4.697,0,8.504-3.807,8.504-8.504s-3.807-8.504-8.504-8.504-8.504,3.807-8.504,8.504,3.807,8.504,8.504,8.504"/>
  <line class="cls-1" x1="63.904" y1="315.149" x2="63.904" y2="320.818"/>
  <line class="cls-1" x1="61.07" y1="317.983" x2="66.739" y2="317.983"/>
  <path class="cls-1" d="m21.385,326.468c4.697,0,8.504-3.807,8.504-8.504s-3.807-8.504-8.504-8.504-8.504,3.807-8.504,8.504,3.807,8.504,8.504,8.504"/>
  <line class="cls-1" x1="21.385" y1="315.13" x2="21.385" y2="320.799"/>
  <line class="cls-1" x1="18.55" y1="317.964" x2="24.219" y2="317.964"/>
  <path class="cls-1" d="m42.645,65.197c4.628,0,8.379-3.751,8.379-8.379s-3.751-8.379-8.379-8.379-8.379,3.751-8.379,8.379,3.751,8.379,8.379,8.379"/>
  <line class="cls-1" x1="42.645" y1="51.857" x2="42.645" y2="62.062"/>
  <line class="cls-1" x1="37.542" y1="56.96" x2="47.747" y2="56.96"/>
  <path class="cls-1" d="m42.645,190.618c4.628,0,8.379-3.751,8.379-8.379s-3.751-8.379-8.379-8.379-8.379,3.752-8.379,8.379,3.751,8.379,8.379,8.379"/>
  <line class="cls-1" x1="42.645" y1="177.137" x2="42.645" y2="187.342"/>
  <line class="cls-1" x1="37.542" y1="182.239" x2="47.747" y2="182.239"/>
  <circle class="cls-1" cx="42.645" cy="119.464" r="8.379"/>
  <line class="cls-1" x1="42.645" y1="114.503" x2="42.645" y2="124.708"/>
  <line class="cls-1" x1="37.542" y1="119.605" x2="47.747" y2="119.605"/>
  <path class="cls-1" d="m42.645,253.276c4.628,0,8.379-3.751,8.379-8.379s-3.751-8.379-8.379-8.379-8.379,3.752-8.379,8.379,3.751,8.379,8.379,8.379"/>
  <line class="cls-1" x1="42.645" y1="239.794" x2="42.645" y2="249.999"/>
  <line class="cls-1" x1="37.542" y1="244.897" x2="47.747" y2="244.897"/>
  <path class="cls-1" d="m21.385,291.196c2.505,0,4.535-2.031,4.535-4.535s-2.03-4.536-4.535-4.536-4.535,2.031-4.535,4.536,2.03,4.535,4.535,4.535"/>
  <line class="cls-1" x1="21.385" y1="284.535" x2="21.385" y2="288.787"/>
  <line class="cls-1" x1="19.259" y1="286.66" x2="23.511" y2="286.66"/>
  <path class="cls-1" d="m10.755,13.164c2.505,0,4.535-2.031,4.535-4.535s-2.03-4.536-4.535-4.536-4.535,2.031-4.535,4.536,2.03,4.535,4.535,4.535"/>
  <line class="cls-1" x1="10.755" y1="6.503" x2="10.755" y2="10.755"/>
  <line class="cls-1" x1="8.629" y1="8.629" x2="12.881" y2="8.629"/>
  <path class="cls-1" d="m74.534,360.409c2.505,0,4.535-2.031,4.535-4.535s-2.03-4.536-4.535-4.536-4.535,2.031-4.535,4.536,2.03,4.535,4.535,4.535"/>
  <line class="cls-1" x1="74.535" y1="353.747" x2="74.535" y2="357.999"/>
  <line class="cls-1" x1="72.408" y1="355.873" x2="76.66" y2="355.873"/>
  <rect class="cls-2" x=".125" y=".125" width="85.039" height="364.252"/>
</svg>